<svg width="436" height="436" viewBox="0 0 436 436" fill="none" xmlns="http://www.w3.org/2000/svg">
<path d="M78.7015 259.11C78.7015 259.675 78.3481 260.417 77.6415 261.336C77.0055 262.184 76.0868 263.032 74.8855 263.88C73.7548 264.728 72.4121 265.47 70.8575 266.106C69.3735 266.742 67.7835 267.06 66.0875 267.06C63.4728 267.06 61.1761 266.247 59.1975 264.622C57.2188 262.926 55.4168 260.629 53.7915 257.732C52.2368 254.835 50.7881 251.407 49.4455 247.45C48.1028 243.422 46.7248 239.076 45.3115 234.412L41.2835 237.062L39.2695 264.41C39.1988 264.975 39.0575 265.399 38.8455 265.682C38.6335 265.894 38.2095 266 37.5735 266H31.7435C27.7155 266 24.8535 265.223 23.1575 263.668C21.5321 262.043 20.7195 259.675 20.7195 256.566C20.7195 255.577 20.7548 254.093 20.8255 252.114C20.9668 250.065 21.1435 247.697 21.3555 245.012C21.5675 242.256 21.7795 239.253 21.9915 236.002C22.2741 232.751 22.5568 229.43 22.8395 226.038C23.3341 219.254 23.7228 213.883 24.0055 209.926C24.3588 205.969 24.6061 202.859 24.7475 200.598C24.8888 198.266 24.9948 196.57 25.0655 195.51C25.1361 194.379 25.1715 193.319 25.1715 192.33C25.1715 191.27 25.7368 190.74 26.8675 190.74H32.6975C34.9588 190.74 36.7608 190.987 38.1035 191.482C39.5168 191.906 40.6121 192.542 41.3895 193.39C42.1668 194.238 42.6968 195.298 42.9795 196.57C43.2621 197.771 43.4035 199.185 43.4035 200.81C43.4035 202.435 43.2975 205.085 43.0855 208.76C42.9441 212.364 42.6968 216.427 42.3435 220.95C44.7461 217.982 47.6081 214.307 50.9295 209.926C54.3215 205.545 58.4201 200.139 63.2255 193.708C63.4375 193.425 63.7201 193.072 64.0735 192.648C64.4975 192.153 64.9215 191.694 65.3455 191.27C65.8401 190.846 66.3348 190.493 66.8295 190.21C67.3948 189.857 67.9248 189.68 68.4195 189.68C69.3381 189.68 70.3981 190.175 71.5995 191.164C72.8008 192.083 73.9315 193.249 74.9915 194.662C76.0515 196.005 76.9348 197.418 77.6415 198.902C78.4188 200.315 78.8075 201.517 78.8075 202.506C78.8075 204.555 76.9701 207.629 73.2955 211.728C69.6208 215.756 64.3561 220.42 57.5015 225.72C58.7028 227.769 60.0808 229.995 61.6355 232.398C63.1901 234.73 64.7448 237.133 66.2995 239.606C67.8541 242.009 69.3735 244.376 70.8575 246.708C72.3415 248.969 73.6488 251.019 74.7795 252.856C75.9808 254.623 76.9348 256.071 77.6415 257.202C78.3481 258.333 78.7015 258.969 78.7015 259.11ZM107.583 267.06C102.707 267.06 98.6438 266.389 95.3932 265.046C92.2132 263.633 89.6692 261.725 87.7612 259.322C85.8532 256.919 84.5105 254.128 83.7332 250.948C82.9558 247.697 82.5672 244.235 82.5672 240.56C82.5672 236.32 83.0618 232.186 84.0512 228.158C85.1112 224.059 86.8778 220.42 89.3512 217.24C91.8245 214.06 95.0752 211.516 99.1032 209.608C103.202 207.629 108.29 206.64 114.367 206.64C123.271 206.64 129.631 208.831 133.447 213.212C137.334 217.523 139.277 223.6 139.277 231.444C139.277 233.635 139.1 236.073 138.747 238.758C138.464 241.373 137.864 243.987 136.945 246.602C136.097 249.217 134.896 251.761 133.341 254.234C131.857 256.707 129.949 258.898 127.617 260.806C125.285 262.714 122.459 264.233 119.137 265.364C115.886 266.495 112.035 267.06 107.583 267.06ZM112.565 220.738C109.88 220.738 107.724 221.445 106.099 222.858C104.544 224.201 103.343 225.861 102.495 227.84C101.718 229.748 101.188 231.797 100.905 233.988C100.693 236.108 100.587 237.91 100.587 239.394C100.587 244.058 101.329 247.485 102.813 249.676C104.297 251.867 106.417 252.962 109.173 252.962C111.646 252.962 113.66 252.185 115.215 250.63C116.84 249.075 118.077 247.203 118.925 245.012C119.844 242.821 120.444 240.525 120.727 238.122C121.081 235.719 121.257 233.705 121.257 232.08C121.257 228.547 120.586 225.791 119.243 223.812C117.971 221.763 115.745 220.738 112.565 220.738ZM165.529 246.92C165.317 250.171 165.069 253.28 164.787 256.248C164.504 259.145 164.292 261.689 164.151 263.88C164.08 264.728 163.903 265.293 163.621 265.576C163.338 265.859 162.737 266 161.819 266H158.003C155.812 266 154.01 265.788 152.597 265.364C151.254 264.869 150.159 264.198 149.311 263.35C148.533 262.502 147.968 261.477 147.615 260.276C147.332 259.004 147.191 257.555 147.191 255.93C147.191 254.87 147.226 253.386 147.297 251.478C147.438 249.499 147.65 246.814 147.933 243.422C148.215 239.959 148.533 235.613 148.887 230.384C149.311 225.084 149.805 218.547 150.371 210.774C150.441 209.219 150.618 208.301 150.901 208.018C151.113 207.806 151.678 207.7 152.597 207.7H156.731C158.851 207.7 160.582 207.947 161.925 208.442C163.267 208.937 164.363 209.573 165.211 210.35C166.059 211.127 166.659 212.046 167.013 213.106C167.366 214.166 167.578 215.261 167.649 216.392C169.698 212.576 172.03 209.997 174.645 208.654C177.259 207.311 180.333 206.64 183.867 206.64C185.775 206.64 187.612 206.817 189.379 207.17C191.145 207.523 192.735 208.124 194.149 208.972C195.562 209.82 196.763 210.951 197.753 212.364C198.742 213.707 199.449 215.438 199.873 217.558C202.063 213.459 204.466 210.633 207.081 209.078C209.695 207.453 212.981 206.64 216.939 206.64C219.129 206.64 221.214 206.887 223.193 207.382C225.242 207.806 227.009 208.583 228.493 209.714C229.977 210.845 231.143 212.399 231.991 214.378C232.909 216.286 233.369 218.689 233.369 221.586C233.369 223.777 233.263 226.462 233.051 229.642C232.839 232.822 232.591 236.285 232.309 240.03C232.026 243.705 231.708 247.521 231.355 251.478C231.001 255.365 230.719 259.11 230.507 262.714C230.436 263.491 230.365 264.092 230.295 264.516C230.224 264.94 230.083 265.258 229.871 265.47C229.729 265.682 229.482 265.823 229.129 265.894C228.775 265.965 228.281 266 227.645 266H224.253C221.991 266 220.154 265.788 218.741 265.364C217.327 264.94 216.232 264.339 215.455 263.562C214.677 262.785 214.112 261.831 213.759 260.7C213.476 259.499 213.335 258.156 213.335 256.672C213.335 255.753 213.37 254.446 213.441 252.75C213.582 251.054 213.723 249.217 213.865 247.238C214.077 245.259 214.253 243.21 214.395 241.09C214.607 238.97 214.783 237.027 214.925 235.26C215.137 233.423 215.278 231.833 215.349 230.49C215.49 229.147 215.561 228.264 215.561 227.84C215.561 226.003 215.172 224.377 214.395 222.964C213.688 221.551 212.275 220.844 210.155 220.844C208.317 220.844 206.727 221.445 205.385 222.646C204.042 223.847 202.911 225.508 201.993 227.628C201.074 229.748 200.332 232.257 199.767 235.154C199.201 238.051 198.813 241.196 198.601 244.588C198.459 246.779 198.283 249.287 198.071 252.114C197.859 254.941 197.611 258.474 197.329 262.714C197.258 263.491 197.187 264.092 197.117 264.516C197.046 264.94 196.905 265.258 196.693 265.47C196.551 265.682 196.304 265.823 195.951 265.894C195.597 265.965 195.103 266 194.467 266H191.075C188.813 266 186.976 265.788 185.563 265.364C184.149 264.94 183.054 264.339 182.277 263.562C181.499 262.785 180.934 261.831 180.581 260.7C180.298 259.499 180.157 258.156 180.157 256.672C180.157 255.259 180.263 253.209 180.475 250.524C180.757 247.768 181.005 244.941 181.217 242.044C181.499 239.076 181.747 236.285 181.959 233.67C182.241 230.985 182.383 229.041 182.383 227.84C182.383 226.003 181.994 224.377 181.217 222.964C180.51 221.551 179.097 220.844 176.977 220.844C175.069 220.844 173.443 221.551 172.101 222.964C170.758 224.377 169.627 226.285 168.709 228.688C167.861 231.02 167.154 233.776 166.589 236.956C166.094 240.136 165.741 243.457 165.529 246.92ZM266.583 267.06C261.707 267.06 257.644 266.389 254.393 265.046C251.213 263.633 248.669 261.725 246.761 259.322C244.853 256.919 243.51 254.128 242.733 250.948C241.956 247.697 241.567 244.235 241.567 240.56C241.567 236.32 242.062 232.186 243.051 228.158C244.111 224.059 245.878 220.42 248.351 217.24C250.824 214.06 254.075 211.516 258.103 209.608C262.202 207.629 267.29 206.64 273.367 206.64C282.271 206.64 288.631 208.831 292.447 213.212C296.334 217.523 298.277 223.6 298.277 231.444C298.277 233.635 298.1 236.073 297.747 238.758C297.464 241.373 296.864 243.987 295.945 246.602C295.097 249.217 293.896 251.761 292.341 254.234C290.857 256.707 288.949 258.898 286.617 260.806C284.285 262.714 281.459 264.233 278.137 265.364C274.886 266.495 271.035 267.06 266.583 267.06ZM271.565 220.738C268.88 220.738 266.724 221.445 265.099 222.858C263.544 224.201 262.343 225.861 261.495 227.84C260.718 229.748 260.188 231.797 259.905 233.988C259.693 236.108 259.587 237.91 259.587 239.394C259.587 244.058 260.329 247.485 261.813 249.676C263.297 251.867 265.417 252.962 268.173 252.962C270.646 252.962 272.66 252.185 274.215 250.63C275.84 249.075 277.077 247.203 277.925 245.012C278.844 242.821 279.444 240.525 279.727 238.122C280.081 235.719 280.257 233.705 280.257 232.08C280.257 228.547 279.586 225.791 278.243 223.812C276.971 221.763 274.745 220.738 271.565 220.738ZM325.589 267.06C322.833 267.06 320.183 266.565 317.639 265.576C315.165 264.587 312.975 263.032 311.067 260.912C309.229 258.792 307.745 256.107 306.615 252.856C305.555 249.605 305.025 245.683 305.025 241.09C305.025 239.041 305.166 236.779 305.449 234.306C305.731 231.762 306.226 229.218 306.933 226.674C307.639 224.13 308.629 221.657 309.901 219.254C311.173 216.851 312.763 214.731 314.671 212.894C316.649 210.986 318.981 209.467 321.667 208.336C324.423 207.205 327.638 206.64 331.313 206.64C334.846 206.64 337.673 207.276 339.793 208.548C341.983 209.749 343.361 211.869 343.927 214.908C344.068 212.152 344.209 209.749 344.351 207.7C344.492 205.651 344.598 203.743 344.669 201.976C344.81 200.209 344.951 198.443 345.093 196.676C345.234 194.909 345.375 192.895 345.517 190.634C345.587 189.079 345.764 188.161 346.047 187.878C346.188 187.737 346.365 187.666 346.577 187.666C346.789 187.595 347.177 187.56 347.743 187.56H351.877C353.997 187.56 355.763 187.807 357.177 188.302C358.59 188.797 359.721 189.468 360.569 190.316C361.417 191.164 362.017 192.153 362.371 193.284C362.724 194.344 362.901 195.475 362.901 196.676C362.901 196.676 362.83 197.559 362.689 199.326C362.547 201.093 362.371 203.46 362.159 206.428C361.947 209.325 361.699 212.647 361.417 216.392C361.134 220.137 360.851 224.024 360.569 228.052C360.286 232.009 360.003 235.967 359.721 239.924C359.438 243.811 359.155 247.415 358.873 250.736C358.59 253.987 358.343 256.813 358.131 259.216C357.989 261.548 357.883 263.103 357.813 263.88C357.671 264.728 357.495 265.293 357.283 265.576C357.071 265.859 356.47 266 355.481 266H351.665C350.181 266 348.767 265.894 347.425 265.682C346.153 265.399 345.022 264.975 344.033 264.41C343.114 263.774 342.372 262.961 341.807 261.972C341.312 260.912 341.065 259.569 341.065 257.944C339.793 260.629 337.849 262.82 335.235 264.516C332.691 266.212 329.475 267.06 325.589 267.06ZM334.811 220.738C331.207 220.738 328.521 222.328 326.755 225.508C325.059 228.617 324.211 232.822 324.211 238.122C324.211 239.959 324.317 241.761 324.529 243.528C324.811 245.295 325.271 246.885 325.907 248.298C326.543 249.711 327.391 250.842 328.451 251.69C329.581 252.538 330.995 252.962 332.691 252.962C335.729 252.962 338.273 251.478 340.323 248.51C342.372 245.542 343.397 240.878 343.397 234.518C343.397 232.751 343.291 231.055 343.079 229.43C342.867 227.734 342.443 226.25 341.807 224.978C341.171 223.706 340.287 222.681 339.157 221.904C338.026 221.127 336.577 220.738 334.811 220.738ZM394.425 267.06C389.549 267.06 385.486 266.389 382.235 265.046C379.055 263.633 376.511 261.725 374.603 259.322C372.695 256.919 371.352 254.128 370.575 250.948C369.798 247.697 369.409 244.235 369.409 240.56C369.409 236.32 369.904 232.186 370.893 228.158C371.953 224.059 373.72 220.42 376.193 217.24C378.666 214.06 381.917 211.516 385.945 209.608C390.044 207.629 395.132 206.64 401.209 206.64C410.113 206.64 416.473 208.831 420.289 213.212C424.176 217.523 426.119 223.6 426.119 231.444C426.119 233.635 425.942 236.073 425.589 238.758C425.306 241.373 424.706 243.987 423.787 246.602C422.939 249.217 421.738 251.761 420.183 254.234C418.699 256.707 416.791 258.898 414.459 260.806C412.127 262.714 409.3 264.233 405.979 265.364C402.728 266.495 398.877 267.06 394.425 267.06ZM399.407 220.738C396.722 220.738 394.566 221.445 392.941 222.858C391.386 224.201 390.185 225.861 389.337 227.84C388.56 229.748 388.03 231.797 387.747 233.988C387.535 236.108 387.429 237.91 387.429 239.394C387.429 244.058 388.171 247.485 389.655 249.676C391.139 251.867 393.259 252.962 396.015 252.962C398.488 252.962 400.502 252.185 402.057 250.63C403.682 249.075 404.919 247.203 405.767 245.012C406.686 242.821 407.286 240.525 407.569 238.122C407.922 235.719 408.099 233.705 408.099 232.08C408.099 228.547 407.428 225.791 406.085 223.812C404.813 221.763 402.587 220.738 399.407 220.738Z" fill="white"/>
<path d="M77.6415 261.336L77.4433 261.184L77.4415 261.186L77.6415 261.336ZM74.8855 263.88L74.7412 263.676L74.7355 263.68L74.8855 263.88ZM70.8575 266.106L70.7628 265.875L70.759 265.876L70.8575 266.106ZM59.1975 264.622L59.0347 264.812L59.0388 264.815L59.1975 264.622ZM53.7915 257.732L53.5711 257.85L53.5734 257.854L53.7915 257.732ZM49.4455 247.45L49.2083 247.529L49.2087 247.53L49.4455 247.45ZM45.3115 234.412L45.5507 234.339L45.4537 234.019L45.1741 234.203L45.3115 234.412ZM41.2835 237.062L41.1461 236.853L41.0432 236.921L41.0342 237.044L41.2835 237.062ZM39.2695 264.41L39.5179 264.441L39.5188 264.428L39.2695 264.41ZM38.8455 265.682L39.0223 265.859L39.0348 265.846L39.0455 265.832L38.8455 265.682ZM23.1575 263.668L22.9805 263.845L22.9885 263.852L23.1575 263.668ZM20.8255 252.114L20.5759 252.097L20.5756 252.105L20.8255 252.114ZM21.3555 245.012L21.6047 245.032L21.6047 245.031L21.3555 245.012ZM21.9915 236.002L21.7424 235.98L21.742 235.986L21.9915 236.002ZM22.8395 226.038L23.0886 226.059L23.0888 226.056L22.8395 226.038ZM24.0055 209.926L23.7564 209.904L23.7561 209.908L24.0055 209.926ZM24.7475 200.598L24.997 200.614L24.997 200.613L24.7475 200.598ZM25.0655 195.51L25.3149 195.527L25.315 195.526L25.0655 195.51ZM38.1035 191.482L38.0171 191.717L38.0243 191.719L38.0316 191.721L38.1035 191.482ZM41.3895 193.39L41.5738 193.221L41.5738 193.221L41.3895 193.39ZM42.9795 196.57L42.7354 196.624L42.7361 196.627L42.9795 196.57ZM43.0855 208.76L42.8359 208.746L42.8357 208.75L43.0855 208.76ZM42.3435 220.95L42.0942 220.931L42.0316 221.733L42.5378 221.107L42.3435 220.95ZM50.9295 209.926L50.7318 209.773L50.7303 209.775L50.9295 209.926ZM63.2255 193.708L63.0255 193.558L63.0252 193.558L63.2255 193.708ZM64.0735 192.648L63.8836 192.485L63.8814 192.488L64.0735 192.648ZM65.3455 191.27L65.1828 191.08L65.1755 191.086L65.1687 191.093L65.3455 191.27ZM66.8295 190.21L66.9536 190.427L66.962 190.422L66.8295 190.21ZM71.5995 191.164L71.4404 191.357L71.4476 191.363L71.5995 191.164ZM74.9915 194.662L74.7914 194.812L74.7953 194.817L74.9915 194.662ZM77.6415 198.902L77.4158 199.009L77.4189 199.016L77.4224 199.022L77.6415 198.902ZM73.2955 211.728L73.4802 211.896L73.4816 211.895L73.2955 211.728ZM57.5015 225.72L57.3486 225.522L57.1746 225.657L57.2858 225.846L57.5015 225.72ZM61.6355 232.398L61.4256 232.534L61.4275 232.537L61.6355 232.398ZM66.2995 239.606L66.0878 239.739L66.0896 239.742L66.2995 239.606ZM70.8575 246.708L70.6465 246.842L70.6485 246.845L70.8575 246.708ZM74.7795 252.856L74.5663 252.987L74.5727 252.997L74.7795 252.856ZM77.6415 257.202L77.4295 257.334L77.4295 257.334L77.6415 257.202ZM78.4515 259.11C78.4515 259.586 78.1456 260.271 77.4433 261.184L77.8396 261.488C78.5507 260.564 78.9515 259.764 78.9515 259.11H78.4515ZM77.4415 261.186C76.8259 262.007 75.9289 262.837 74.7413 263.676L75.0297 264.084C76.2447 263.227 77.1851 262.361 77.8415 261.486L77.4415 261.186ZM74.7355 263.68C73.6247 264.513 72.3014 265.245 70.7628 265.875L70.9521 266.337C72.5229 265.695 73.8849 264.943 75.0355 264.08L74.7355 263.68ZM70.759 265.876C69.3077 266.498 67.7514 266.81 66.0875 266.81V267.31C67.8156 267.31 69.4393 266.986 70.956 266.336L70.759 265.876ZM66.0875 266.81C63.5294 266.81 61.2891 266.017 59.3562 264.429L59.0388 264.815C61.0632 266.478 63.4163 267.31 66.0875 267.31V266.81ZM59.3602 264.432C57.4089 262.76 55.6243 260.488 54.0095 257.61L53.5734 257.854C55.2094 260.771 57.0287 263.092 59.0348 264.812L59.3602 264.432ZM54.0118 257.614C52.4651 254.731 51.0216 251.317 49.6822 247.37L49.2087 247.53C50.5547 251.497 52.0085 254.938 53.5712 257.85L54.0118 257.614ZM49.6827 247.371C48.3408 243.345 46.9635 239.002 45.5507 234.339L45.0722 234.485C46.4861 239.15 47.8648 243.499 49.2083 247.529L49.6827 247.371ZM45.1741 234.203L41.1461 236.853L41.4209 237.271L45.4489 234.621L45.1741 234.203ZM41.0342 237.044L39.0202 264.392L39.5188 264.428L41.5328 237.08L41.0342 237.044ZM39.0214 264.379C38.9532 264.925 38.82 265.299 38.6455 265.532L39.0455 265.832C39.2949 265.499 39.4445 265.026 39.5175 264.441L39.0214 264.379ZM38.6687 265.505C38.6062 265.568 38.4948 265.631 38.3078 265.678C38.1224 265.724 37.8794 265.75 37.5735 265.75V266.25C37.9035 266.25 38.1905 266.223 38.4291 266.163C38.6662 266.104 38.8728 266.008 39.0223 265.859L38.6687 265.505ZM37.5735 265.75H31.7435V266.25H37.5735V265.75ZM31.7435 265.75C27.7351 265.75 24.9523 264.974 23.3264 263.484L22.9885 263.852C24.7547 265.471 27.6958 266.25 31.7435 266.25V265.75ZM23.3343 263.491C21.7704 261.927 20.9695 259.633 20.9695 256.566H20.4695C20.4695 259.718 21.2939 262.158 22.9807 263.845L23.3343 263.491ZM20.9695 256.566C20.9695 255.581 21.0047 254.101 21.0753 252.123L20.5756 252.105C20.5049 254.084 20.4695 255.572 20.4695 256.566H20.9695ZM21.0749 252.131C21.2161 250.083 21.3927 247.716 21.6047 245.032L21.1063 244.992C20.8942 247.678 20.7175 250.046 20.5761 252.097L21.0749 252.131ZM21.6047 245.031C21.8168 242.274 22.0289 239.27 22.2409 236.018L21.742 235.986C21.5301 239.236 21.3181 242.238 21.1062 244.993L21.6047 245.031ZM22.2405 236.024C22.5232 232.773 22.8059 229.451 23.0886 226.059L22.5903 226.017C22.3077 229.409 22.0251 232.73 21.7424 235.98L22.2405 236.024ZM23.0888 226.056C23.5835 219.272 23.9722 213.901 24.2548 209.944L23.7561 209.908C23.4735 213.865 23.0848 219.236 22.5901 226.02L23.0888 226.056ZM24.2545 209.948C24.6079 205.99 24.8555 202.878 24.997 200.614L24.498 200.582C24.3568 202.84 24.1097 205.947 23.7565 209.904L24.2545 209.948ZM24.997 200.613C25.1383 198.281 25.2443 196.586 25.3149 195.527L24.816 195.493C24.7453 196.554 24.6393 198.251 24.4979 200.583L24.997 200.613ZM25.315 195.526C25.3859 194.39 25.4215 193.325 25.4215 192.33H24.9215C24.9215 193.313 24.8864 194.368 24.816 195.494L25.315 195.526ZM25.4215 192.33C25.4215 191.843 25.5506 191.522 25.7665 191.32C25.9853 191.115 26.3368 190.99 26.8675 190.99V190.49C26.2675 190.49 25.771 190.63 25.4245 190.955C25.075 191.283 24.9215 191.757 24.9215 192.33H25.4215ZM26.8675 190.99H32.6975V190.49H26.8675V190.99ZM32.6975 190.99C34.9444 190.99 36.7134 191.236 38.0171 191.717L38.1899 191.247C36.8083 190.738 34.9732 190.49 32.6975 190.49V190.99ZM38.0316 191.721C39.4138 192.136 40.4658 192.752 41.2052 193.559L41.5738 193.221C40.7585 192.332 39.6198 191.676 38.1753 191.243L38.0316 191.721ZM41.2052 193.559C41.9491 194.37 42.461 195.389 42.7354 196.624L43.2235 196.516C42.9326 195.207 42.3845 194.105 41.5738 193.221L41.2052 193.559ZM42.7361 196.627C43.0132 197.805 43.1535 199.198 43.1535 200.81H43.6535C43.6535 199.171 43.5111 197.738 43.2228 196.513L42.7361 196.627ZM43.1535 200.81C43.1535 202.428 43.0479 205.071 42.8359 208.746L43.3351 208.774C43.5471 205.099 43.6535 202.443 43.6535 200.81H43.1535ZM42.8357 208.75C42.6945 212.35 42.4474 216.41 42.0942 220.931L42.5927 220.969C42.9462 216.444 43.1938 212.378 43.3353 208.77L42.8357 208.75ZM42.5378 221.107C44.9427 218.137 47.8064 214.46 51.1287 210.077L50.7303 209.775C47.4099 214.155 44.5496 217.827 42.1492 220.793L42.5378 221.107ZM51.1272 210.079C54.5203 205.696 58.6199 200.289 63.4257 193.858L63.0252 193.558C58.2204 199.988 54.1226 205.393 50.7318 209.773L51.1272 210.079ZM63.4255 193.858C63.6339 193.58 63.9136 193.23 64.2655 192.808L63.8814 192.488C63.5267 192.914 63.241 193.271 63.0255 193.558L63.4255 193.858ZM64.2633 192.811C64.6835 192.32 65.1031 191.866 65.5223 191.447L65.1687 191.093C64.7398 191.522 64.3115 191.986 63.8837 192.485L64.2633 192.811ZM65.5082 191.46C65.9925 191.045 66.4744 190.701 66.9535 190.427L66.7054 189.993C66.1953 190.284 65.6878 190.647 65.1828 191.08L65.5082 191.46ZM66.962 190.422C67.501 190.085 67.9853 189.93 68.4195 189.93V189.43C67.8643 189.43 67.2886 189.628 66.697 189.998L66.962 190.422ZM68.4195 189.93C69.2518 189.93 70.2556 190.381 71.4406 191.357L71.7584 190.971C70.5407 189.968 69.4245 189.43 68.4195 189.43V189.93ZM71.4476 191.363C72.628 192.265 73.743 193.414 74.7915 194.812L75.1915 194.512C74.12 193.083 72.9736 191.9 71.7513 190.965L71.4476 191.363ZM74.7953 194.817C75.8442 196.146 76.7174 197.543 77.4158 199.009L77.8672 198.795C77.1522 197.293 76.2588 195.864 75.1877 194.507L74.7953 194.817ZM77.4224 199.022C78.1909 200.42 78.5575 201.577 78.5575 202.506H79.0575C79.0575 201.456 78.6468 200.211 77.8605 198.782L77.4224 199.022ZM78.5575 202.506C78.5575 203.463 78.1255 204.697 77.2149 206.22C76.3076 207.738 74.941 209.518 73.1093 211.561L73.4816 211.895C75.3246 209.839 76.714 208.033 77.6441 206.477C78.5708 204.926 79.0575 203.598 79.0575 202.506H78.5575ZM73.1108 211.56C69.4498 215.573 64.1976 220.227 57.3486 225.522L57.6544 225.918C64.5147 220.613 69.7918 215.939 73.4802 211.896L73.1108 211.56ZM57.2858 225.846C58.4893 227.899 59.8693 230.129 61.4256 232.534L61.8454 232.262C60.2923 229.862 58.9163 227.639 57.7172 225.594L57.2858 225.846ZM61.4275 232.537C62.9808 234.867 64.5343 237.268 66.0878 239.739L66.5111 239.473C64.9553 236.998 63.3994 234.593 61.8435 232.259L61.4275 232.537ZM66.0896 239.742C67.6439 242.144 69.1629 244.511 70.6466 246.842L71.0684 246.574C69.584 244.241 68.0644 241.873 66.5094 239.47L66.0896 239.742ZM70.6485 246.845C72.1315 249.105 73.4374 251.152 74.5666 252.987L74.9924 252.725C73.8602 250.885 72.5515 248.834 71.0665 246.571L70.6485 246.845ZM74.5727 252.997C75.7732 254.762 76.7252 256.208 77.4295 257.334L77.8535 257.069C77.1444 255.935 76.1884 254.483 74.9862 252.715L74.5727 252.997ZM77.4295 257.334C77.7821 257.899 78.0444 258.336 78.2179 258.648C78.3049 258.805 78.3675 258.926 78.4076 259.015C78.4278 259.059 78.4405 259.091 78.4477 259.113C78.4569 259.14 78.4515 259.134 78.4515 259.11H78.9515C78.9515 259.05 78.935 258.994 78.9221 258.955C78.9072 258.91 78.8869 258.861 78.8628 258.808C78.8146 258.702 78.7447 258.567 78.655 258.406C78.4752 258.082 78.2076 257.636 77.8535 257.069L77.4295 257.334ZM95.3932 265.046L95.2916 265.275L95.2977 265.277L95.3932 265.046ZM87.7612 259.322L87.5654 259.477L87.5654 259.477L87.7612 259.322ZM83.7332 250.948L83.49 251.006L83.4903 251.007L83.7332 250.948ZM84.0512 228.158L83.8091 228.095L83.8084 228.098L84.0512 228.158ZM89.3512 217.24L89.1538 217.087L89.1538 217.087L89.3512 217.24ZM99.1032 209.608L99.2102 209.834L99.2119 209.833L99.1032 209.608ZM133.447 213.212L133.259 213.376L133.261 213.379L133.447 213.212ZM138.747 238.758L138.499 238.725L138.499 238.731L138.747 238.758ZM136.945 246.602L136.709 246.519L136.707 246.525L136.945 246.602ZM133.341 254.234L133.129 254.101L133.127 254.105L133.341 254.234ZM127.617 260.806L127.775 260.999L127.775 260.999L127.617 260.806ZM119.137 265.364L119.057 265.127L119.055 265.128L119.137 265.364ZM106.099 222.858L106.263 223.047L106.263 223.047L106.099 222.858ZM102.495 227.84L102.265 227.742L102.264 227.746L102.495 227.84ZM100.905 233.988L100.657 233.956L100.656 233.963L100.905 233.988ZM102.813 249.676L103.02 249.536L103.02 249.536L102.813 249.676ZM115.215 250.63L115.042 250.449L115.038 250.453L115.215 250.63ZM118.925 245.012L118.695 244.915L118.692 244.922L118.925 245.012ZM120.727 238.122L120.48 238.086L120.479 238.093L120.727 238.122ZM119.243 223.812L119.031 223.944L119.036 223.952L119.243 223.812ZM107.583 266.81C102.728 266.81 98.6997 266.141 95.4886 264.815L95.2977 265.277C98.5879 266.636 102.686 267.31 107.583 267.31V266.81ZM95.4947 264.818C92.3465 263.418 89.8367 261.534 87.9569 259.167L87.5654 259.477C89.5016 261.916 92.0798 263.847 95.2916 265.274L95.4947 264.818ZM87.9569 259.167C86.0729 256.794 84.7454 254.036 83.976 250.889L83.4903 251.007C84.2756 254.22 85.6335 257.045 87.5654 259.477L87.9569 259.167ZM83.9763 250.89C83.204 247.66 82.8172 244.217 82.8172 240.56H82.3172C82.3172 244.252 82.7077 247.735 83.49 251.006L83.9763 250.89ZM82.8172 240.56C82.8172 236.34 83.3095 232.226 84.2939 228.218L83.8084 228.098C82.8141 232.146 82.3172 236.3 82.3172 240.56H82.8172ZM84.2932 228.221C85.3451 224.153 87.0972 220.545 89.5485 217.393L89.1538 217.087C86.6585 220.295 84.8772 223.965 83.8091 228.095L84.2932 228.221ZM89.5485 217.393C91.9954 214.248 95.2137 211.727 99.2102 209.834L98.9961 209.382C94.9366 211.305 91.6536 213.872 89.1538 217.087L89.5485 217.393ZM99.2119 209.833C103.267 207.875 108.315 206.89 114.367 206.89V206.39C108.264 206.39 103.136 207.383 98.9945 209.383L99.2119 209.833ZM114.367 206.89C123.237 206.89 129.511 209.073 133.259 213.376L133.636 213.048C129.752 208.588 123.305 206.39 114.367 206.39V206.89ZM133.261 213.379C137.094 217.63 139.027 223.64 139.027 231.444H139.527C139.527 223.56 137.574 217.415 133.633 213.045L133.261 213.379ZM139.027 231.444C139.027 233.622 138.852 236.048 138.499 238.725L138.995 238.791C139.349 236.097 139.527 233.648 139.527 231.444H139.027ZM138.499 238.731C138.218 241.326 137.622 243.922 136.709 246.519L137.181 246.685C138.106 244.053 138.711 241.42 138.996 238.785L138.499 238.731ZM136.707 246.525C135.866 249.119 134.674 251.644 133.13 254.101L133.553 254.367C135.118 251.877 136.328 249.315 137.183 246.679L136.707 246.525ZM133.127 254.105C131.658 256.553 129.77 258.722 127.459 260.613L127.775 260.999C130.129 259.074 132.056 256.862 133.556 254.363L133.127 254.105ZM127.459 260.613C125.153 262.499 122.354 264.005 119.057 265.127L119.218 265.601C122.563 264.462 125.417 262.929 127.775 260.999L127.459 260.613ZM119.055 265.128C115.837 266.247 112.015 266.81 107.583 266.81V267.31C112.055 267.31 115.936 266.742 119.219 265.6L119.055 265.128ZM112.565 220.488C109.835 220.488 107.616 221.207 105.935 222.669L106.263 223.047C107.833 221.682 109.925 220.988 112.565 220.988V220.488ZM105.936 222.669C104.351 224.037 103.128 225.73 102.265 227.742L102.725 227.938C103.559 225.993 104.738 224.364 106.263 223.047L105.936 222.669ZM102.264 227.746C101.478 229.675 100.942 231.745 100.657 233.956L101.153 234.02C101.433 231.849 101.958 229.821 102.727 227.934L102.264 227.746ZM100.656 233.963C100.444 236.088 100.337 237.899 100.337 239.394H100.837C100.837 237.921 100.942 236.128 101.154 234.013L100.656 233.963ZM100.337 239.394C100.337 244.075 101.08 247.563 102.606 249.816L103.02 249.536C101.578 247.408 100.837 244.041 100.837 239.394H100.337ZM102.606 249.816C104.139 252.079 106.338 253.212 109.173 253.212V252.712C106.496 252.712 104.455 251.654 103.02 249.536L102.606 249.816ZM109.173 253.212C111.704 253.212 113.784 252.414 115.392 250.807L115.038 250.453C113.537 251.955 111.589 252.712 109.173 252.712V253.212ZM115.388 250.811C117.041 249.23 118.298 247.326 119.158 245.102L118.692 244.922C117.857 247.08 116.64 248.921 115.042 250.449L115.388 250.811ZM119.156 245.109C120.084 242.896 120.69 240.577 120.975 238.151L120.479 238.093C120.199 240.473 119.604 242.747 118.695 244.915L119.156 245.109ZM120.975 238.158C121.329 235.749 121.507 233.722 121.507 232.08H121.007C121.007 233.689 120.832 235.69 120.48 238.086L120.975 238.158ZM121.507 232.08C121.507 228.519 120.831 225.707 119.45 223.672L119.036 223.952C120.34 225.874 121.007 228.574 121.007 232.08H121.507ZM119.456 223.68C118.124 221.534 115.801 220.488 112.565 220.488V220.988C115.69 220.988 117.819 221.991 119.031 223.944L119.456 223.68ZM165.529 246.92L165.778 246.936L165.778 246.935L165.529 246.92ZM164.787 256.248L165.036 256.272L165.036 256.272L164.787 256.248ZM164.151 263.88L164.4 263.901L164.4 263.896L164.151 263.88ZM163.621 265.576L163.798 265.753L163.798 265.753L163.621 265.576ZM152.597 265.364L152.51 265.599L152.518 265.601L152.525 265.603L152.597 265.364ZM149.311 263.35L149.126 263.519L149.134 263.527L149.311 263.35ZM147.615 260.276L147.371 260.33L147.373 260.338L147.375 260.347L147.615 260.276ZM147.297 251.478L147.047 251.46L147.047 251.469L147.297 251.478ZM147.933 243.422L148.182 243.443L148.182 243.442L147.933 243.422ZM148.887 230.384L148.638 230.364L148.637 230.367L148.887 230.384ZM150.371 210.774L150.62 210.792L150.62 210.785L150.371 210.774ZM150.901 208.018L150.724 207.841L150.724 207.841L150.901 208.018ZM161.925 208.442L162.011 208.207L162.011 208.207L161.925 208.442ZM165.211 210.35L165.38 210.166L165.38 210.166L165.211 210.35ZM167.013 213.106L167.25 213.027L167.25 213.027L167.013 213.106ZM167.649 216.392L167.399 216.408L167.454 217.283L167.869 216.51L167.649 216.392ZM189.379 207.17L189.33 207.415L189.33 207.415L189.379 207.17ZM194.149 208.972L194.277 208.758L194.277 208.758L194.149 208.972ZM197.753 212.364L197.548 212.507L197.551 212.512L197.753 212.364ZM199.873 217.558L199.628 217.607L199.764 218.291L200.093 217.676L199.873 217.558ZM207.081 209.078L207.209 209.293L207.213 209.29L207.081 209.078ZM223.193 207.382L223.132 207.625L223.142 207.627L223.193 207.382ZM228.493 209.714L228.341 209.913L228.341 209.913L228.493 209.714ZM231.991 214.378L231.761 214.477L231.765 214.486L231.991 214.378ZM233.051 229.642L232.801 229.625L232.801 229.625L233.051 229.642ZM232.309 240.03L232.558 240.049L232.558 240.049L232.309 240.03ZM231.355 251.478L231.604 251.501L231.604 251.5L231.355 251.478ZM230.507 262.714L230.756 262.737L230.756 262.729L230.507 262.714ZM230.295 264.516L230.541 264.557L230.541 264.557L230.295 264.516ZM229.871 265.47L229.694 265.293L229.676 265.311L229.663 265.331L229.871 265.47ZM229.129 265.894L229.08 265.649L229.08 265.649L229.129 265.894ZM218.741 265.364L218.669 265.603L218.669 265.603L218.741 265.364ZM215.455 263.562L215.632 263.385L215.632 263.385L215.455 263.562ZM213.759 260.7L213.515 260.757L213.517 260.766L213.52 260.775L213.759 260.7ZM213.441 252.75L213.191 252.729L213.191 252.74L213.441 252.75ZM213.865 247.238L213.616 247.211L213.615 247.22L213.865 247.238ZM214.395 241.09L214.146 241.065L214.145 241.073L214.395 241.09ZM214.925 235.26L214.676 235.231L214.676 235.24L214.925 235.26ZM215.349 230.49L215.1 230.464L215.099 230.477L215.349 230.49ZM214.395 222.964L214.171 223.076L214.176 223.084L214.395 222.964ZM205.385 222.646L205.551 222.832L205.551 222.832L205.385 222.646ZM199.767 235.154L199.521 235.106L199.521 235.106L199.767 235.154ZM198.601 244.588L198.85 244.604L198.85 244.604L198.601 244.588ZM198.071 252.114L197.821 252.095L197.821 252.095L198.071 252.114ZM197.329 262.714L197.578 262.737L197.578 262.731L197.329 262.714ZM197.117 264.516L197.363 264.557L197.363 264.557L197.117 264.516ZM196.693 265.47L196.516 265.293L196.498 265.311L196.485 265.331L196.693 265.47ZM195.951 265.894L196 266.139L196 266.139L195.951 265.894ZM185.563 265.364L185.635 265.125L185.635 265.125L185.563 265.364ZM182.277 263.562L182.1 263.739L182.1 263.739L182.277 263.562ZM180.581 260.7L180.337 260.757L180.339 260.766L180.342 260.775L180.581 260.7ZM180.475 250.524L180.226 250.498L180.226 250.504L180.475 250.524ZM181.217 242.044L180.968 242.02L180.967 242.026L181.217 242.044ZM181.959 233.67L181.71 233.644L181.71 233.65L181.959 233.67ZM181.217 222.964L180.993 223.076L180.998 223.084L181.217 222.964ZM172.101 222.964L172.282 223.136L172.282 223.136L172.101 222.964ZM168.709 228.688L168.475 228.599L168.474 228.603L168.709 228.688ZM166.589 236.956L166.343 236.912L166.342 236.918L166.589 236.956ZM165.279 246.904C165.067 250.152 164.82 253.259 164.538 256.224L165.036 256.272C165.319 253.301 165.566 250.189 165.778 246.936L165.279 246.904ZM164.538 256.224C164.255 259.123 164.043 261.67 163.901 263.864L164.4 263.896C164.541 261.709 164.753 259.168 165.036 256.272L164.538 256.224ZM163.902 263.859C163.867 264.272 163.808 264.606 163.727 264.865C163.645 265.127 163.546 265.297 163.444 265.399L163.798 265.753C163.978 265.572 164.109 265.319 164.204 265.015C164.299 264.709 164.364 264.336 164.4 263.901L163.902 263.859ZM163.444 265.399C163.349 265.494 163.179 265.585 162.901 265.651C162.626 265.715 162.267 265.75 161.819 265.75V266.25C162.289 266.25 162.69 266.214 163.015 266.137C163.338 266.061 163.61 265.94 163.798 265.753L163.444 265.399ZM161.819 265.75H158.003V266.25H161.819V265.75ZM158.003 265.75C155.826 265.75 154.05 265.539 152.669 265.125L152.525 265.603C153.97 266.037 155.798 266.25 158.003 266.25V265.75ZM152.683 265.129C151.368 264.645 150.305 263.991 149.488 263.173L149.134 263.527C150.012 264.405 151.14 265.094 152.51 265.599L152.683 265.129ZM149.495 263.181C148.746 262.364 148.198 261.373 147.855 260.205L147.375 260.347C147.738 261.581 148.321 262.64 149.126 263.519L149.495 263.181ZM147.859 260.222C147.581 258.971 147.441 257.541 147.441 255.93H146.941C146.941 257.569 147.083 259.037 147.371 260.33L147.859 260.222ZM147.441 255.93C147.441 254.875 147.476 253.394 147.547 251.487L147.047 251.469C146.976 253.378 146.941 254.865 146.941 255.93H147.441ZM147.546 251.496C147.687 249.519 147.899 246.834 148.182 243.443L147.684 243.401C147.401 246.794 147.189 249.48 147.047 251.46L147.546 251.496ZM148.182 243.442C148.465 239.978 148.783 235.631 149.136 230.401L148.637 230.367C148.284 235.596 147.966 239.941 147.684 243.402L148.182 243.442ZM149.136 230.404C149.56 225.103 150.055 218.566 150.62 210.792L150.121 210.756C149.556 218.529 149.061 225.065 148.638 230.364L149.136 230.404ZM150.62 210.785C150.656 210.013 150.717 209.409 150.802 208.966C150.844 208.745 150.892 208.57 150.942 208.439C150.994 208.304 151.042 208.23 151.078 208.195L150.724 207.841C150.618 207.947 150.538 208.095 150.475 208.26C150.411 208.428 150.357 208.634 150.311 208.872C150.219 209.348 150.157 209.98 150.121 210.763L150.62 210.785ZM151.078 208.195C151.128 208.145 151.258 208.076 151.53 208.025C151.791 207.976 152.145 207.95 152.597 207.95V207.45C152.13 207.45 151.742 207.477 151.438 207.534C151.144 207.589 150.886 207.679 150.724 207.841L151.078 208.195ZM152.597 207.95H156.731V207.45H152.597V207.95ZM156.731 207.95C158.834 207.95 160.533 208.196 161.838 208.677L162.011 208.207C160.631 207.699 158.867 207.45 156.731 207.45V207.95ZM161.838 208.677C163.158 209.163 164.223 209.784 165.042 210.534L165.38 210.166C164.503 209.362 163.377 208.711 162.011 208.207L161.838 208.677ZM165.042 210.534C165.859 211.284 166.436 212.167 166.776 213.185L167.25 213.027C166.883 211.925 166.258 210.971 165.38 210.166L165.042 210.534ZM166.776 213.185C167.122 214.224 167.33 215.298 167.399 216.408L167.898 216.376C167.826 215.224 167.61 214.108 167.25 213.027L166.776 213.185ZM167.869 216.51C169.905 212.719 172.206 210.187 174.759 208.876L174.531 208.432C171.854 209.806 169.491 212.433 167.428 216.274L167.869 216.51ZM174.759 208.876C177.332 207.555 180.365 206.89 183.867 206.89V206.39C180.302 206.39 177.187 207.067 174.531 208.432L174.759 208.876ZM183.867 206.89C185.759 206.89 187.58 207.065 189.33 207.415L189.428 206.925C187.644 206.568 185.79 206.39 183.867 206.39V206.89ZM189.33 207.415C191.071 207.763 192.634 208.354 194.02 209.186L194.277 208.758C192.837 207.894 191.22 207.283 189.428 206.925L189.33 207.415ZM194.02 209.186C195.402 210.015 196.578 211.121 197.548 212.507L197.958 212.221C196.949 210.78 195.722 209.625 194.277 208.758L194.02 209.186ZM197.551 212.512C198.514 213.818 199.209 215.513 199.628 217.607L200.118 217.509C199.689 215.363 198.97 213.595 197.954 212.216L197.551 212.512ZM200.093 217.676C202.273 213.598 204.648 210.815 207.208 209.293L206.953 208.863C204.284 210.45 201.854 213.321 199.652 217.44L200.093 217.676ZM207.213 209.29C209.778 207.696 213.015 206.89 216.939 206.89V206.39C212.948 206.39 209.613 207.21 206.949 208.866L207.213 209.29ZM216.939 206.89C219.11 206.89 221.175 207.135 223.132 207.625L223.253 207.139C221.253 206.639 219.148 206.39 216.939 206.39V206.89ZM223.142 207.627C225.159 208.044 226.89 208.807 228.341 209.913L228.644 209.515C227.127 208.359 225.325 207.568 223.243 207.137L223.142 207.627ZM228.341 209.913C229.786 211.014 230.927 212.531 231.761 214.476L232.221 214.28C231.358 212.267 230.168 210.676 228.644 209.515L228.341 209.913ZM231.765 214.486C232.663 216.351 233.119 218.713 233.119 221.586H233.619C233.619 218.664 233.156 216.221 232.216 214.27L231.765 214.486ZM233.119 221.586C233.119 223.769 233.013 226.449 232.801 229.625L233.3 229.659C233.512 226.475 233.619 223.784 233.619 221.586H233.119ZM232.801 229.625C232.589 232.805 232.342 236.266 232.059 240.011L232.558 240.049C232.841 236.303 233.088 232.839 233.3 229.659L232.801 229.625ZM232.059 240.011C231.777 243.684 231.459 247.499 231.106 251.456L231.604 251.5C231.957 247.542 232.275 243.725 232.558 240.049L232.059 240.011ZM231.106 251.455C230.752 255.344 230.469 259.092 230.257 262.699L230.756 262.729C230.968 259.128 231.251 255.385 231.604 251.501L231.106 251.455ZM230.258 262.691C230.187 263.467 230.117 264.06 230.048 264.475L230.541 264.557C230.614 264.124 230.685 263.516 230.756 262.737L230.258 262.691ZM230.048 264.475C229.982 264.869 229.856 265.131 229.694 265.293L230.048 265.647C230.309 265.385 230.466 265.011 230.541 264.557L230.048 264.475ZM229.663 265.331C229.571 265.469 229.395 265.586 229.08 265.649L229.178 266.139C229.569 266.061 229.888 265.895 230.079 265.609L229.663 265.331ZM229.08 265.649C228.75 265.715 228.275 265.75 227.645 265.75V266.25C228.287 266.25 228.801 266.215 229.178 266.139L229.08 265.649ZM227.645 265.75H224.253V266.25H227.645V265.75ZM224.253 265.75C222.004 265.75 220.194 265.539 218.813 265.125L218.669 265.603C220.114 266.037 221.979 266.25 224.253 266.25V265.75ZM218.813 265.125C217.426 264.709 216.371 264.125 215.632 263.385L215.278 263.739C216.093 264.554 217.229 265.171 218.669 265.603L218.813 265.125ZM215.632 263.385C214.885 262.639 214.34 261.721 213.997 260.625L213.52 260.775C213.885 261.941 214.47 262.931 215.278 263.739L215.632 263.385ZM214.002 260.643C213.725 259.463 213.585 258.14 213.585 256.672H213.085C213.085 258.172 213.228 259.534 213.515 260.757L214.002 260.643ZM213.585 256.672C213.585 255.759 213.62 254.455 213.691 252.76L213.191 252.74C213.12 254.437 213.085 255.748 213.085 256.672H213.585ZM213.69 252.771C213.831 251.074 213.973 249.235 214.114 247.256L213.615 247.22C213.474 249.198 213.333 251.034 213.192 252.729L213.69 252.771ZM214.113 247.265C214.326 245.282 214.503 243.23 214.644 241.107L214.145 241.073C214.004 243.19 213.828 245.236 213.616 247.211L214.113 247.265ZM214.643 241.115C214.856 238.994 215.032 237.049 215.174 235.28L214.676 235.24C214.534 237.005 214.358 238.946 214.146 241.065L214.643 241.115ZM215.173 235.289C215.385 233.448 215.527 231.853 215.598 230.503L215.099 230.477C215.029 231.813 214.888 233.397 214.676 235.231L215.173 235.289ZM215.597 230.516C215.738 229.176 215.811 228.279 215.811 227.84H215.311C215.311 228.249 215.242 229.118 215.1 230.464L215.597 230.516ZM215.811 227.84C215.811 225.966 215.414 224.299 214.614 222.844L214.176 223.084C214.93 224.456 215.311 226.039 215.311 227.84H215.811ZM214.618 222.852C213.855 221.325 212.332 220.594 210.155 220.594V221.094C212.218 221.094 213.521 221.776 214.171 223.076L214.618 222.852ZM210.155 220.594C208.257 220.594 206.608 221.216 205.218 222.46L205.551 222.832C206.847 221.673 208.378 221.094 210.155 221.094V220.594ZM205.218 222.46C203.842 223.691 202.692 225.384 201.763 227.529L202.222 227.727C203.13 225.632 204.242 224.004 205.551 222.832L205.218 222.46ZM201.763 227.529C200.836 229.669 200.089 232.196 199.521 235.106L200.012 235.202C200.575 232.318 201.312 229.827 202.222 227.727L201.763 227.529ZM199.521 235.106C198.954 238.016 198.564 241.171 198.351 244.572L198.85 244.604C199.062 241.221 199.449 238.087 200.012 235.202L199.521 235.106ZM198.351 244.572C198.21 246.761 198.033 249.269 197.821 252.095L198.32 252.133C198.532 249.305 198.709 246.796 198.85 244.604L198.351 244.572ZM197.821 252.095C197.609 254.923 197.362 258.457 197.079 262.697L197.578 262.731C197.861 258.491 198.108 254.958 198.32 252.133L197.821 252.095ZM197.08 262.691C197.009 263.467 196.939 264.06 196.87 264.475L197.363 264.557C197.436 264.124 197.507 263.516 197.578 262.737L197.08 262.691ZM196.87 264.475C196.804 264.869 196.678 265.131 196.516 265.293L196.87 265.647C197.131 265.385 197.288 265.011 197.363 264.557L196.87 264.475ZM196.485 265.331C196.393 265.469 196.217 265.586 195.902 265.649L196 266.139C196.391 266.061 196.71 265.895 196.901 265.609L196.485 265.331ZM195.902 265.649C195.572 265.715 195.097 265.75 194.467 265.75V266.25C195.109 266.25 195.623 266.215 196 266.139L195.902 265.649ZM194.467 265.75H191.075V266.25H194.467V265.75ZM191.075 265.75C188.826 265.75 187.016 265.539 185.635 265.125L185.491 265.603C186.936 266.037 188.801 266.25 191.075 266.25V265.75ZM185.635 265.125C184.248 264.709 183.193 264.125 182.454 263.385L182.1 263.739C182.915 264.554 184.051 265.171 185.491 265.603L185.635 265.125ZM182.454 263.385C181.707 262.639 181.162 261.721 180.819 260.625L180.342 260.775C180.707 261.941 181.292 262.931 182.1 263.739L182.454 263.385ZM180.824 260.643C180.547 259.463 180.407 258.14 180.407 256.672H179.907C179.907 258.172 180.05 259.534 180.337 260.757L180.824 260.643ZM180.407 256.672C180.407 255.269 180.512 253.227 180.724 250.544L180.226 250.504C180.013 253.191 179.907 255.249 179.907 256.672H180.407ZM180.723 250.55C181.006 247.791 181.254 244.962 181.466 242.062L180.967 242.026C180.756 244.921 180.508 247.745 180.226 250.498L180.723 250.55ZM181.466 242.068C181.748 239.099 181.996 236.306 182.208 233.69L181.71 233.65C181.498 236.263 181.25 239.053 180.968 242.02L181.466 242.068ZM182.207 233.696C182.49 231.01 182.633 229.056 182.633 227.84H182.133C182.133 229.027 181.993 230.959 181.71 233.644L182.207 233.696ZM182.633 227.84C182.633 225.966 182.236 224.299 181.436 222.844L180.998 223.084C181.752 224.456 182.133 226.039 182.133 227.84H182.633ZM181.44 222.852C180.677 221.325 179.154 220.594 176.977 220.594V221.094C179.04 221.094 180.343 221.776 180.993 223.076L181.44 222.852ZM176.977 220.594C174.999 220.594 173.308 221.33 171.919 222.792L172.282 223.136C173.579 221.771 175.139 221.094 176.977 221.094V220.594ZM171.919 222.792C170.548 224.235 169.402 226.175 168.475 228.599L168.942 228.777C169.853 226.396 170.968 224.519 172.282 223.136L171.919 222.792ZM168.474 228.603C167.62 230.951 166.91 233.722 166.343 236.912L166.835 237C167.398 233.83 168.102 231.089 168.944 228.773L168.474 228.603ZM166.342 236.918C165.846 240.106 165.492 243.435 165.279 246.905L165.778 246.935C165.99 243.48 166.342 240.166 166.836 236.994L166.342 236.918ZM254.393 265.046L254.292 265.275L254.298 265.277L254.393 265.046ZM246.761 259.322L246.565 259.477L246.565 259.477L246.761 259.322ZM242.733 250.948L242.49 251.006L242.49 251.007L242.733 250.948ZM243.051 228.158L242.809 228.095L242.808 228.098L243.051 228.158ZM248.351 217.24L248.154 217.087L248.154 217.087L248.351 217.24ZM258.103 209.608L258.21 209.834L258.212 209.833L258.103 209.608ZM292.447 213.212L292.259 213.376L292.261 213.379L292.447 213.212ZM297.747 238.758L297.499 238.725L297.499 238.731L297.747 238.758ZM295.945 246.602L295.709 246.519L295.707 246.525L295.945 246.602ZM292.341 254.234L292.129 254.101L292.127 254.105L292.341 254.234ZM286.617 260.806L286.775 260.999L286.775 260.999L286.617 260.806ZM278.137 265.364L278.057 265.127L278.055 265.128L278.137 265.364ZM265.099 222.858L265.263 223.047L265.263 223.047L265.099 222.858ZM261.495 227.84L261.265 227.742L261.264 227.746L261.495 227.84ZM259.905 233.988L259.657 233.956L259.656 233.963L259.905 233.988ZM261.813 249.676L262.02 249.536L262.02 249.536L261.813 249.676ZM274.215 250.63L274.042 250.449L274.038 250.453L274.215 250.63ZM277.925 245.012L277.695 244.915L277.692 244.922L277.925 245.012ZM279.727 238.122L279.48 238.086L279.479 238.093L279.727 238.122ZM278.243 223.812L278.031 223.944L278.036 223.952L278.243 223.812ZM266.583 266.81C261.728 266.81 257.7 266.141 254.489 264.815L254.298 265.277C257.588 266.636 261.686 267.31 266.583 267.31V266.81ZM254.495 264.818C251.347 263.418 248.837 261.534 246.957 259.167L246.565 259.477C248.502 261.916 251.08 263.847 254.292 265.274L254.495 264.818ZM246.957 259.167C245.073 256.794 243.745 254.036 242.976 250.889L242.49 251.007C243.276 254.22 244.633 257.045 246.565 259.477L246.957 259.167ZM242.976 250.89C242.204 247.66 241.817 244.217 241.817 240.56H241.317C241.317 244.252 241.708 247.735 242.49 251.006L242.976 250.89ZM241.817 240.56C241.817 236.34 242.31 232.226 243.294 228.218L242.808 228.098C241.814 232.146 241.317 236.3 241.317 240.56H241.817ZM243.293 228.221C244.345 224.153 246.097 220.545 248.549 217.393L248.154 217.087C245.658 220.295 243.877 223.965 242.809 228.095L243.293 228.221ZM248.549 217.393C250.995 214.248 254.214 211.727 258.21 209.834L257.996 209.382C253.937 211.305 250.654 213.872 248.154 217.087L248.549 217.393ZM258.212 209.833C262.267 207.875 267.315 206.89 273.367 206.89V206.39C267.264 206.39 262.136 207.383 257.994 209.383L258.212 209.833ZM273.367 206.89C282.237 206.89 288.511 209.073 292.259 213.376L292.636 213.048C288.752 208.588 282.305 206.39 273.367 206.39V206.89ZM292.261 213.379C296.094 217.63 298.027 223.64 298.027 231.444H298.527C298.527 223.56 296.574 217.415 292.633 213.045L292.261 213.379ZM298.027 231.444C298.027 233.622 297.852 236.048 297.499 238.725L297.995 238.791C298.349 236.097 298.527 233.648 298.527 231.444H298.027ZM297.499 238.731C297.218 241.326 296.622 243.922 295.709 246.519L296.181 246.685C297.106 244.053 297.711 241.42 297.996 238.785L297.499 238.731ZM295.707 246.525C294.866 249.119 293.674 251.644 292.13 254.101L292.553 254.367C294.118 251.877 295.328 249.315 296.183 246.679L295.707 246.525ZM292.127 254.105C290.658 256.553 288.77 258.722 286.459 260.613L286.775 260.999C289.129 259.074 291.056 256.862 292.556 254.363L292.127 254.105ZM286.459 260.613C284.153 262.499 281.354 264.005 278.057 265.127L278.218 265.601C281.563 264.462 284.417 262.929 286.775 260.999L286.459 260.613ZM278.055 265.128C274.837 266.247 271.015 266.81 266.583 266.81V267.31C271.055 267.31 274.936 266.742 278.219 265.6L278.055 265.128ZM271.565 220.488C268.835 220.488 266.616 221.207 264.935 222.669L265.263 223.047C266.833 221.682 268.925 220.988 271.565 220.988V220.488ZM264.936 222.669C263.351 224.037 262.128 225.73 261.265 227.742L261.725 227.938C262.559 225.993 263.738 224.364 265.263 223.047L264.936 222.669ZM261.264 227.746C260.478 229.675 259.942 231.745 259.657 233.956L260.153 234.02C260.433 231.849 260.958 229.821 261.727 227.934L261.264 227.746ZM259.656 233.963C259.444 236.088 259.337 237.899 259.337 239.394H259.837C259.837 237.921 259.942 236.128 260.154 234.013L259.656 233.963ZM259.337 239.394C259.337 244.075 260.08 247.563 261.606 249.816L262.02 249.536C260.578 247.408 259.837 244.041 259.837 239.394H259.337ZM261.606 249.816C263.139 252.079 265.338 253.212 268.173 253.212V252.712C265.496 252.712 263.455 251.654 262.02 249.536L261.606 249.816ZM268.173 253.212C270.704 253.212 272.784 252.414 274.392 250.807L274.038 250.453C272.537 251.955 270.589 252.712 268.173 252.712V253.212ZM274.388 250.811C276.041 249.23 277.298 247.326 278.158 245.102L277.692 244.922C276.857 247.08 275.64 248.921 274.042 250.449L274.388 250.811ZM278.156 245.109C279.084 242.896 279.69 240.577 279.975 238.151L279.479 238.093C279.199 240.473 278.604 242.747 277.695 244.915L278.156 245.109ZM279.975 238.158C280.329 235.749 280.507 233.722 280.507 232.08H280.007C280.007 233.689 279.832 235.69 279.48 238.086L279.975 238.158ZM280.507 232.08C280.507 228.519 279.831 225.707 278.45 223.672L278.036 223.952C279.34 225.874 280.007 228.574 280.007 232.08H280.507ZM278.456 223.68C277.124 221.534 274.801 220.488 271.565 220.488V220.988C274.69 220.988 276.819 221.991 278.031 223.944L278.456 223.68ZM317.639 265.576L317.546 265.808L317.548 265.809L317.639 265.576ZM311.067 260.912L310.878 261.076L310.881 261.079L311.067 260.912ZM306.615 252.856L306.377 252.934L306.379 252.938L306.615 252.856ZM305.449 234.306L305.697 234.334L305.697 234.334L305.449 234.306ZM306.933 226.674L306.692 226.607L306.692 226.607L306.933 226.674ZM309.901 219.254L310.122 219.371L310.122 219.371L309.901 219.254ZM314.671 212.894L314.844 213.074L314.844 213.074L314.671 212.894ZM321.667 208.336L321.572 208.105L321.57 208.106L321.667 208.336ZM339.793 208.548L339.664 208.763L339.673 208.767L339.793 208.548ZM343.927 214.908L343.681 214.954L344.176 214.921L343.927 214.908ZM344.351 207.7L344.6 207.717L344.6 207.717L344.351 207.7ZM344.669 201.976L344.419 201.956L344.419 201.966L344.669 201.976ZM345.093 196.676L344.844 196.656L344.844 196.656L345.093 196.676ZM345.517 190.634L345.766 190.65L345.766 190.645L345.517 190.634ZM346.047 187.878L345.87 187.701L345.87 187.701L346.047 187.878ZM346.577 187.666V187.916H346.617L346.656 187.903L346.577 187.666ZM357.177 188.302L357.259 188.066L357.259 188.066L357.177 188.302ZM360.569 190.316L360.392 190.493L360.569 190.316ZM362.371 193.284L362.132 193.359L362.134 193.363L362.371 193.284ZM362.901 196.676L363.15 196.696L363.151 196.686V196.676H362.901ZM362.689 199.326L362.44 199.306L362.44 199.306L362.689 199.326ZM362.159 206.428L362.408 206.446L362.408 206.446L362.159 206.428ZM360.569 228.052L360.818 228.07L360.818 228.069L360.569 228.052ZM359.721 239.924L359.97 239.942L359.97 239.942L359.721 239.924ZM358.873 250.736L359.122 250.758L359.122 250.757L358.873 250.736ZM358.131 259.216L357.882 259.194L357.881 259.201L358.131 259.216ZM357.813 263.88L358.059 263.921L358.061 263.912L358.062 263.903L357.813 263.88ZM357.283 265.576L357.083 265.426L357.083 265.426L357.283 265.576ZM347.425 265.682L347.37 265.926L347.378 265.928L347.386 265.929L347.425 265.682ZM344.033 264.41L343.89 264.616L343.899 264.622L343.909 264.627L344.033 264.41ZM341.807 261.972L341.58 262.078L341.585 262.087L341.59 262.096L341.807 261.972ZM341.065 257.944H341.315L340.839 257.837L341.065 257.944ZM335.235 264.516L335.099 264.306L335.096 264.308L335.235 264.516ZM326.755 225.508L326.536 225.387L326.535 225.388L326.755 225.508ZM324.529 243.528L324.28 243.558L324.282 243.567L324.529 243.528ZM325.907 248.298L326.135 248.195L326.135 248.195L325.907 248.298ZM328.451 251.69L328.294 251.885L328.301 251.89L328.451 251.69ZM340.323 248.51L340.117 248.368L340.117 248.368L340.323 248.51ZM343.079 229.43L342.831 229.461L342.831 229.462L343.079 229.43ZM341.807 224.978L341.583 225.09L341.583 225.09L341.807 224.978ZM339.157 221.904L339.015 222.11L339.015 222.11L339.157 221.904ZM325.589 266.81C322.863 266.81 320.244 266.321 317.729 265.343L317.548 265.809C320.121 266.81 322.802 267.31 325.589 267.31V266.81ZM317.732 265.344C315.296 264.37 313.137 262.838 311.253 260.745L310.881 261.079C312.813 263.226 315.035 264.804 317.546 265.808L317.732 265.344ZM311.256 260.748C309.443 258.657 307.973 256.001 306.851 252.774L306.379 252.938C307.517 256.212 309.016 258.927 310.878 261.076L311.256 260.748ZM306.852 252.778C305.803 249.56 305.275 245.665 305.275 241.09H304.775C304.775 245.701 305.307 249.651 306.377 252.934L306.852 252.778ZM305.275 241.09C305.275 239.052 305.415 236.8 305.697 234.334L305.2 234.278C304.917 236.758 304.775 239.029 304.775 241.09H305.275ZM305.697 234.334C305.978 231.803 306.47 229.272 307.174 226.741L306.692 226.607C305.982 229.164 305.484 231.721 305.2 234.278L305.697 234.334ZM307.174 226.741C307.875 224.215 308.858 221.758 310.122 219.371L309.68 219.137C308.4 221.555 307.403 224.045 306.692 226.607L307.174 226.741ZM310.122 219.371C311.382 216.991 312.956 214.893 314.844 213.074L314.497 212.714C312.57 214.57 310.964 216.712 309.68 219.137L310.122 219.371ZM314.844 213.074C316.799 211.189 319.105 209.686 321.764 208.566L321.57 208.106C318.858 209.247 316.499 210.783 314.497 212.714L314.844 213.074ZM321.762 208.567C324.481 207.451 327.663 206.89 331.313 206.89V206.39C327.613 206.39 324.364 206.959 321.572 208.105L321.762 208.567ZM331.313 206.89C334.819 206.89 337.596 207.522 339.664 208.762L339.921 208.334C337.749 207.03 334.873 206.39 331.313 206.39V206.89ZM339.673 208.767C341.782 209.924 343.126 211.97 343.681 214.954L344.173 214.862C343.597 211.769 342.185 209.575 339.913 208.329L339.673 208.767ZM344.176 214.921C344.318 212.166 344.459 209.765 344.6 207.717L344.101 207.683C343.96 209.734 343.818 212.138 343.677 214.895L344.176 214.921ZM344.6 207.717C344.742 205.666 344.848 203.755 344.919 201.986L344.419 201.966C344.348 203.73 344.243 205.635 344.101 207.683L344.6 207.717ZM344.918 201.996C345.059 200.229 345.201 198.463 345.342 196.696L344.844 196.656C344.702 198.423 344.561 200.189 344.42 201.956L344.918 201.996ZM345.342 196.696C345.483 194.927 345.625 192.912 345.766 190.65L345.267 190.618C345.126 192.879 344.985 194.891 344.844 196.656L345.342 196.696ZM345.766 190.645C345.802 189.873 345.863 189.269 345.948 188.826C345.99 188.605 346.038 188.43 346.088 188.299C346.14 188.164 346.188 188.09 346.224 188.055L345.87 187.701C345.764 187.807 345.684 187.955 345.621 188.12C345.557 188.288 345.503 188.494 345.457 188.732C345.365 189.208 345.303 189.84 345.267 190.623L345.766 190.645ZM346.224 188.055C346.315 187.963 346.427 187.916 346.577 187.916V187.416C346.303 187.416 346.061 187.51 345.87 187.701L346.224 188.055ZM346.656 187.903C346.825 187.847 347.175 187.81 347.743 187.81V187.31C347.179 187.31 346.753 187.344 346.498 187.429L346.656 187.903ZM347.743 187.81H351.877V187.31H347.743V187.81ZM351.877 187.81C353.979 187.81 355.716 188.056 357.094 188.538L357.259 188.066C355.811 187.559 354.014 187.31 351.877 187.31V187.81ZM357.094 188.538C358.481 189.023 359.576 189.677 360.392 190.493L360.746 190.139C359.865 189.259 358.7 188.57 357.259 188.066L357.094 188.538ZM360.392 190.493C361.212 191.313 361.791 192.267 362.132 193.359L362.609 193.209C362.244 192.04 361.622 191.015 360.746 190.139L360.392 190.493ZM362.134 193.363C362.478 194.396 362.651 195.5 362.651 196.676H363.151C363.151 195.45 362.97 194.292 362.608 193.205L362.134 193.363ZM362.901 196.676C362.652 196.656 362.652 196.656 362.652 196.656C362.652 196.656 362.652 196.656 362.652 196.656C362.652 196.656 362.652 196.656 362.652 196.656C362.652 196.656 362.652 196.656 362.651 196.656C362.651 196.656 362.651 196.657 362.651 196.657C362.651 196.657 362.651 196.657 362.651 196.657C362.651 196.661 362.652 196.654 362.651 196.659C362.65 196.673 362.652 196.65 362.651 196.666C362.649 196.682 362.651 196.662 362.65 196.679C362.65 196.68 362.65 196.68 362.65 196.68C362.65 196.681 362.65 196.681 362.65 196.681C362.649 196.689 362.65 196.676 362.649 196.683C362.648 196.699 362.65 196.672 362.649 196.688C362.648 196.696 362.649 196.682 362.649 196.69C362.649 196.69 362.649 196.691 362.649 196.691C362.649 196.692 362.649 196.692 362.649 196.692C362.649 196.693 362.649 196.693 362.649 196.694C362.648 196.694 362.648 196.694 362.648 196.695C362.648 196.695 362.648 196.696 362.648 196.696C362.648 196.697 362.648 196.697 362.648 196.697C362.647 196.713 362.649 196.693 362.647 196.708C362.646 196.724 362.648 196.699 362.647 196.714C362.647 196.715 362.647 196.715 362.647 196.716C362.647 196.717 362.647 196.717 362.647 196.718C362.647 196.718 362.647 196.719 362.646 196.719C362.646 196.72 362.646 196.72 362.646 196.721C362.646 196.721 362.646 196.722 362.646 196.722C362.646 196.723 362.646 196.723 362.646 196.724C362.646 196.725 362.646 196.725 362.646 196.726C362.646 196.726 362.646 196.727 362.646 196.727C362.645 196.74 362.646 196.721 362.645 196.734C362.645 196.735 362.645 196.736 362.645 196.736C362.645 196.737 362.645 196.737 362.645 196.738C362.645 196.739 362.645 196.739 362.645 196.74C362.645 196.74 362.645 196.741 362.645 196.742C362.645 196.742 362.645 196.743 362.645 196.743C362.644 196.744 362.644 196.745 362.644 196.745C362.644 196.746 362.644 196.747 362.644 196.747C362.644 196.748 362.644 196.749 362.644 196.749C362.643 196.759 362.644 196.748 362.643 196.757C362.643 196.758 362.643 196.758 362.643 196.759C362.643 196.76 362.643 196.761 362.643 196.761C362.643 196.762 362.643 196.763 362.643 196.763C362.643 196.764 362.643 196.765 362.643 196.765C362.643 196.766 362.643 196.767 362.643 196.768C362.643 196.768 362.642 196.769 362.642 196.77C362.642 196.77 362.642 196.771 362.642 196.772C362.642 196.773 362.642 196.773 362.642 196.774C362.642 196.775 362.642 196.775 362.642 196.776C362.642 196.777 362.642 196.778 362.642 196.778C362.64 196.794 362.643 196.767 362.641 196.783C362.641 196.784 362.641 196.784 362.641 196.785C362.641 196.786 362.641 196.787 362.641 196.787C362.641 196.788 362.641 196.789 362.641 196.79C362.641 196.791 362.641 196.791 362.641 196.792C362.639 196.809 362.642 196.78 362.64 196.797C362.64 196.798 362.64 196.798 362.64 196.799C362.64 196.8 362.64 196.801 362.64 196.802C362.64 196.802 362.64 196.803 362.64 196.804C362.64 196.805 362.64 196.806 362.639 196.807C362.638 196.827 362.641 196.791 362.639 196.811C362.639 196.812 362.639 196.813 362.639 196.814C362.639 196.815 362.639 196.816 362.639 196.817C362.639 196.817 362.639 196.818 362.638 196.819C362.638 196.82 362.638 196.821 362.638 196.822C362.638 196.823 362.638 196.83 362.637 196.832C362.636 196.849 362.638 196.82 362.637 196.838C362.635 196.857 362.638 196.824 362.637 196.843C362.636 196.844 362.636 196.845 362.636 196.846C362.636 196.847 362.636 196.848 362.636 196.849C362.635 196.866 362.637 196.836 362.636 196.854C362.634 196.871 362.636 196.849 362.635 196.866C362.634 196.88 362.635 196.857 362.634 196.872C362.633 196.892 362.635 196.857 362.634 196.877C362.634 196.878 362.634 196.879 362.634 196.88C362.633 196.881 362.633 196.882 362.633 196.884C362.632 196.899 362.634 196.874 362.633 196.89C362.631 196.908 362.633 196.884 362.632 196.902C362.631 196.918 362.633 196.892 362.631 196.908C362.631 196.909 362.631 196.911 362.631 196.912C362.631 196.913 362.631 196.914 362.631 196.915C362.631 196.916 362.631 196.917 362.631 196.918C362.63 196.919 362.63 196.92 362.63 196.921C362.629 196.938 362.631 196.911 362.63 196.928C362.63 196.929 362.63 196.93 362.63 196.931C362.629 196.932 362.629 196.934 362.629 196.935C362.629 196.936 362.629 196.937 362.629 196.938C362.629 196.939 362.629 196.94 362.629 196.941C362.628 196.954 362.629 196.936 362.628 196.948C362.628 196.949 362.628 196.951 362.628 196.952C362.628 196.953 362.628 196.954 362.628 196.955C362.628 196.956 362.627 196.957 362.627 196.959C362.627 196.96 362.627 196.961 362.627 196.962C362.626 196.975 362.628 196.956 362.626 196.969C362.626 196.97 362.626 196.972 362.626 196.973C362.626 196.974 362.626 196.975 362.626 196.976C362.626 196.978 362.626 196.979 362.626 196.98C362.626 196.981 362.625 196.982 362.625 196.984C362.624 196.997 362.626 196.977 362.625 196.991C362.625 196.992 362.625 196.993 362.624 196.995C362.624 196.996 362.624 196.997 362.624 196.998C362.624 197 362.624 197.001 362.624 197.002C362.624 197.003 362.624 197.005 362.624 197.006C362.622 197.02 362.624 196.999 362.623 197.013C362.623 197.015 362.623 197.016 362.623 197.017C362.623 197.018 362.622 197.02 362.622 197.021C362.622 197.022 362.622 197.024 362.622 197.025C362.622 197.026 362.622 197.027 362.622 197.029C362.621 197.043 362.622 197.022 362.621 197.037C362.621 197.038 362.621 197.039 362.621 197.04C362.621 197.042 362.621 197.043 362.62 197.044C362.62 197.046 362.62 197.047 362.62 197.048C362.62 197.05 362.62 197.051 362.62 197.052C362.619 197.062 362.62 197.051 362.619 197.06C362.619 197.062 362.619 197.063 362.619 197.064C362.619 197.066 362.619 197.067 362.619 197.069C362.618 197.07 362.618 197.071 362.618 197.073C362.618 197.074 362.618 197.075 362.618 197.077C362.617 197.086 362.618 197.075 362.617 197.085C362.617 197.086 362.617 197.088 362.617 197.089C362.617 197.091 362.617 197.092 362.617 197.093C362.616 197.095 362.616 197.096 362.616 197.098C362.616 197.099 362.616 197.1 362.616 197.102C362.615 197.112 362.616 197.1 362.615 197.11C362.615 197.112 362.615 197.113 362.615 197.115C362.615 197.116 362.615 197.118 362.614 197.119C362.614 197.12 362.614 197.122 362.614 197.123C362.614 197.125 362.614 197.126 362.614 197.128C362.613 197.138 362.614 197.126 362.613 197.136C362.613 197.138 362.613 197.139 362.613 197.141C362.613 197.142 362.613 197.144 362.612 197.145C362.612 197.147 362.612 197.148 362.612 197.15C362.612 197.151 362.612 197.153 362.612 197.154C362.612 197.156 362.611 197.157 362.611 197.159C362.611 197.16 362.611 197.162 362.611 197.163C362.611 197.165 362.611 197.166 362.611 197.168C362.61 197.169 362.61 197.171 362.61 197.172C362.61 197.174 362.61 197.175 362.61 197.177C362.61 197.178 362.61 197.18 362.609 197.182C362.609 197.183 362.609 197.185 362.609 197.186C362.609 197.188 362.609 197.189 362.609 197.191C362.609 197.192 362.608 197.194 362.608 197.195C362.608 197.197 362.608 197.199 362.608 197.2C362.608 197.202 362.608 197.203 362.608 197.205C362.607 197.206 362.607 197.208 362.607 197.21C362.607 197.211 362.607 197.213 362.607 197.214C362.607 197.216 362.607 197.217 362.606 197.219C362.606 197.221 362.606 197.222 362.606 197.224C362.606 197.225 362.606 197.227 362.606 197.229C362.606 197.23 362.605 197.232 362.605 197.233C362.605 197.235 362.605 197.237 362.605 197.238C362.605 197.24 362.605 197.242 362.605 197.243C362.604 197.245 362.604 197.246 362.604 197.248C362.604 197.25 362.604 197.251 362.604 197.253C362.604 197.255 362.604 197.256 362.603 197.258C362.603 197.26 362.603 197.266 362.603 197.268C362.602 197.269 362.602 197.271 362.602 197.273C362.602 197.274 362.602 197.276 362.602 197.278C362.602 197.279 362.602 197.281 362.601 197.283C362.601 197.285 362.601 197.286 362.601 197.288C362.601 197.29 362.6 197.296 362.6 197.298C362.6 197.3 362.6 197.301 362.6 197.303C362.6 197.305 362.599 197.307 362.599 197.308C362.599 197.31 362.599 197.312 362.599 197.313C362.599 197.315 362.599 197.317 362.599 197.319C362.598 197.32 362.598 197.327 362.598 197.329C362.598 197.331 362.597 197.332 362.597 197.334C362.597 197.336 362.597 197.338 362.597 197.339C362.597 197.341 362.597 197.343 362.596 197.345C362.596 197.346 362.596 197.348 362.596 197.35C362.596 197.352 362.595 197.359 362.595 197.361C362.595 197.362 362.595 197.364 362.595 197.366C362.595 197.368 362.594 197.37 362.594 197.371C362.594 197.373 362.594 197.375 362.594 197.377C362.594 197.379 362.594 197.38 362.593 197.382C362.592 197.398 362.594 197.377 362.593 197.393C362.592 197.395 362.592 197.397 362.592 197.398C362.592 197.4 362.592 197.402 362.592 197.404C362.592 197.406 362.591 197.408 362.591 197.409C362.591 197.411 362.591 197.413 362.591 197.415C362.589 197.432 362.591 197.409 362.59 197.426C362.59 197.428 362.59 197.43 362.589 197.432C362.589 197.434 362.589 197.435 362.589 197.437C362.589 197.439 362.589 197.441 362.589 197.443C362.588 197.445 362.588 197.447 362.588 197.449C362.587 197.466 362.589 197.443 362.587 197.46C362.587 197.462 362.587 197.464 362.587 197.466C362.587 197.468 362.586 197.469 362.586 197.471C362.586 197.473 362.586 197.475 362.586 197.477C362.586 197.479 362.586 197.481 362.585 197.483C362.584 197.5 362.586 197.477 362.584 197.495C362.584 197.496 362.584 197.498 362.584 197.5C362.584 197.502 362.584 197.504 362.584 197.506C362.583 197.508 362.583 197.51 362.583 197.512C362.583 197.514 362.583 197.516 362.583 197.518C362.581 197.536 362.583 197.512 362.582 197.53C362.581 197.532 362.581 197.534 362.581 197.536C362.581 197.538 362.581 197.54 362.581 197.542C362.581 197.544 362.58 197.546 362.58 197.548C362.58 197.55 362.58 197.552 362.58 197.554C362.578 197.572 362.58 197.548 362.579 197.566C362.579 197.568 362.578 197.57 362.578 197.572C362.578 197.574 362.578 197.576 362.578 197.578C362.578 197.58 362.577 197.582 362.577 197.584C362.577 197.586 362.577 197.588 362.577 197.59C362.575 197.609 362.577 197.584 362.576 197.603C362.576 197.605 362.575 197.607 362.575 197.609C362.575 197.611 362.575 197.613 362.575 197.615C362.575 197.617 362.574 197.619 362.574 197.621C362.574 197.623 362.574 197.625 362.574 197.628C362.572 197.646 362.574 197.621 362.573 197.64C362.573 197.642 362.572 197.644 362.572 197.646C362.572 197.649 362.572 197.651 362.572 197.653C362.572 197.655 362.571 197.657 362.571 197.659C362.571 197.661 362.571 197.663 362.571 197.665C362.569 197.685 362.571 197.659 362.57 197.678C362.57 197.68 362.569 197.683 362.569 197.685C362.569 197.687 362.569 197.689 362.569 197.691C362.569 197.693 362.568 197.696 362.568 197.698C362.568 197.7 362.568 197.702 362.568 197.704C362.568 197.706 362.567 197.709 362.567 197.711C362.567 197.713 362.567 197.715 362.567 197.717C362.566 197.719 362.566 197.722 362.566 197.724C362.566 197.726 362.566 197.728 362.566 197.73C362.565 197.733 362.565 197.735 362.565 197.737C362.565 197.739 362.565 197.741 362.565 197.744C362.564 197.746 362.564 197.748 362.564 197.75C362.564 197.752 362.564 197.755 362.563 197.757C362.563 197.759 362.563 197.761 362.563 197.764C362.563 197.766 362.563 197.768 362.562 197.77C362.562 197.773 362.562 197.775 362.562 197.777C362.562 197.779 362.561 197.782 362.561 197.784C362.561 197.786 362.561 197.788 362.561 197.791C362.561 197.793 362.56 197.795 362.56 197.797C362.56 197.8 362.56 197.802 362.56 197.804C362.559 197.806 362.559 197.809 362.559 197.811C362.559 197.813 362.559 197.816 362.559 197.818C362.558 197.82 362.558 197.822 362.558 197.825C362.558 197.827 362.558 197.829 362.557 197.832C362.557 197.834 362.557 197.836 362.557 197.838C362.557 197.841 362.557 197.843 362.556 197.845C362.556 197.848 362.556 197.85 362.556 197.852C362.556 197.855 362.555 197.857 362.555 197.859C362.555 197.862 362.555 197.864 362.555 197.866C362.555 197.869 362.554 197.871 362.554 197.873C362.554 197.876 362.554 197.878 362.554 197.88C362.553 197.883 362.553 197.885 362.553 197.887C362.553 197.89 362.553 197.892 362.552 197.894C362.552 197.897 362.552 197.899 362.552 197.901C362.552 197.904 362.552 197.906 362.551 197.909C362.551 197.911 362.551 197.913 362.551 197.916C362.551 197.918 362.55 197.92 362.55 197.923C362.55 197.925 362.55 197.928 362.55 197.93C362.549 197.932 362.549 197.935 362.549 197.937C362.549 197.94 362.549 197.942 362.548 197.944C362.548 197.947 362.548 197.949 362.548 197.952C362.548 197.954 362.547 197.956 362.547 197.959C362.547 197.961 362.547 197.964 362.547 197.966C362.547 197.969 362.546 197.971 362.546 197.973C362.546 197.976 362.546 197.978 362.546 197.981C362.545 197.983 362.545 197.986 362.545 197.988C362.545 197.991 362.545 197.993 362.544 197.995C362.544 197.998 362.544 198 362.544 198.003C362.544 198.005 362.543 198.008 362.543 198.01C362.543 198.013 362.543 198.015 362.543 198.018C362.542 198.02 362.542 198.023 362.542 198.025C362.542 198.028 362.542 198.03 362.541 198.033C362.541 198.035 362.541 198.037 362.541 198.04C362.541 198.042 362.54 198.045 362.54 198.047C362.54 198.05 362.54 198.052 362.54 198.055C362.539 198.057 362.539 198.06 362.539 198.063C362.539 198.065 362.539 198.068 362.538 198.07C362.538 198.073 362.538 198.075 362.538 198.078C362.538 198.08 362.537 198.083 362.537 198.085C362.537 198.088 362.537 198.09 362.537 198.093C362.536 198.095 362.536 198.098 362.536 198.1C362.536 198.103 362.536 198.106 362.535 198.108C362.535 198.111 362.535 198.113 362.535 198.116C362.535 198.118 362.534 198.121 362.534 198.123C362.534 198.126 362.534 198.129 362.534 198.131C362.533 198.134 362.533 198.136 362.533 198.139C362.533 198.142 362.532 198.144 362.532 198.147C362.532 198.149 362.532 198.152 362.532 198.154C362.531 198.157 362.531 198.16 362.531 198.162C362.531 198.165 362.531 198.167 362.53 198.17C362.53 198.173 362.53 198.175 362.53 198.178C362.53 198.181 362.529 198.183 362.529 198.186C362.529 198.188 362.529 198.191 362.529 198.194C362.528 198.196 362.528 198.199 362.528 198.202C362.528 198.204 362.527 198.207 362.527 198.209C362.527 198.212 362.527 198.215 362.527 198.217C362.526 198.22 362.526 198.223 362.526 198.225C362.526 198.228 362.526 198.231 362.525 198.233C362.525 198.236 362.525 198.239 362.525 198.241C362.524 198.244 362.524 198.247 362.524 198.249C362.524 198.252 362.524 198.255 362.523 198.257C362.523 198.26 362.523 198.263 362.523 198.265C362.523 198.268 362.522 198.271 362.522 198.273C362.522 198.276 362.522 198.279 362.521 198.282C362.521 198.284 362.521 198.287 362.521 198.29C362.521 198.292 362.52 198.295 362.52 198.298C362.52 198.301 362.52 198.303 362.52 198.306C362.519 198.309 362.519 198.311 362.519 198.314C362.519 198.317 362.518 198.32 362.518 198.322C362.518 198.325 362.518 198.328 362.518 198.331C362.517 198.333 362.517 198.336 362.517 198.339C362.517 198.342 362.516 198.344 362.516 198.347C362.516 198.35 362.516 198.353 362.516 198.355C362.515 198.358 362.515 198.361 362.515 198.364C362.515 198.366 362.514 198.369 362.514 198.372C362.514 198.375 362.514 198.378 362.514 198.38C362.513 198.383 362.513 198.386 362.513 198.389C362.513 198.391 362.512 198.394 362.512 198.397C362.512 198.4 362.512 198.403 362.512 198.405C362.511 198.408 362.511 198.411 362.511 198.414C362.511 198.417 362.51 198.42 362.51 198.422C362.51 198.425 362.51 198.428 362.51 198.431C362.509 198.434 362.509 198.436 362.509 198.439C362.509 198.442 362.508 198.445 362.508 198.448C362.508 198.451 362.508 198.453 362.508 198.456C362.507 198.459 362.507 198.462 362.507 198.465C362.507 198.468 362.506 198.471 362.506 198.473C362.506 198.476 362.506 198.479 362.505 198.482C362.505 198.485 362.505 198.488 362.505 198.491C362.505 198.493 362.504 198.496 362.504 198.499C362.504 198.502 362.504 198.505 362.503 198.508C362.503 198.511 362.503 198.514 362.503 198.517C362.502 198.519 362.502 198.522 362.502 198.525C362.502 198.528 362.502 198.531 362.501 198.534C362.501 198.537 362.501 198.54 362.501 198.543C362.5 198.546 362.5 198.548 362.5 198.551C362.5 198.554 362.499 198.557 362.499 198.56C362.499 198.563 362.499 198.566 362.498 198.569C362.498 198.572 362.498 198.575 362.498 198.578C362.498 198.581 362.497 198.584 362.497 198.587C362.497 198.59 362.497 198.592 362.496 198.595C362.496 198.598 362.496 198.601 362.496 198.604C362.495 198.607 362.495 198.61 362.495 198.613C362.495 198.616 362.494 198.619 362.494 198.622C362.494 198.625 362.494 198.628 362.494 198.631C362.493 198.634 362.493 198.637 362.493 198.64C362.493 198.643 362.492 198.646 362.492 198.649C362.492 198.652 362.492 198.655 362.491 198.658C362.491 198.661 362.491 198.664 362.491 198.667C362.49 198.67 362.49 198.673 362.49 198.676C362.49 198.679 362.489 198.682 362.489 198.685C362.489 198.688 362.489 198.691 362.488 198.694C362.488 198.697 362.488 198.7 362.488 198.703C362.488 198.706 362.487 198.709 362.487 198.712C362.487 198.715 362.487 198.718 362.486 198.721C362.486 198.724 362.486 198.727 362.486 198.731C362.485 198.734 362.485 198.737 362.485 198.74C362.485 198.743 362.484 198.746 362.484 198.749C362.484 198.752 362.484 198.755 362.483 198.758C362.483 198.761 362.483 198.764 362.483 198.767C362.482 198.77 362.482 198.773 362.482 198.777C362.482 198.78 362.481 198.783 362.481 198.786C362.481 198.789 362.481 198.792 362.48 198.795C362.48 198.798 362.48 198.801 362.48 198.804C362.479 198.808 362.479 198.811 362.479 198.814C362.479 198.817 362.478 198.82 362.478 198.823C362.478 198.826 362.478 198.829 362.477 198.832C362.477 198.836 362.477 198.839 362.477 198.842C362.476 198.845 362.476 198.848 362.476 198.851C362.476 198.854 362.475 198.858 362.475 198.861C362.475 198.864 362.475 198.867 362.474 198.87C362.474 198.873 362.474 198.876 362.474 198.88C362.473 198.883 362.473 198.886 362.473 198.889C362.473 198.892 362.472 198.895 362.472 198.899C362.472 198.902 362.472 198.905 362.471 198.908C362.471 198.911 362.471 198.915 362.471 198.918C362.47 198.921 362.47 198.924 362.47 198.927C362.47 198.93 362.469 198.934 362.469 198.937C362.469 198.94 362.469 198.943 362.468 198.947C362.468 198.95 362.468 198.953 362.468 198.956C362.467 198.959 362.467 198.963 362.467 198.966C362.466 198.969 362.466 198.972 362.466 198.975C362.466 198.979 362.465 198.982 362.465 198.985C362.465 198.988 362.465 198.992 362.464 198.995C362.464 198.998 362.464 199.001 362.464 199.005C362.463 199.008 362.463 199.011 362.463 199.014C362.463 199.018 362.462 199.021 362.462 199.024C362.462 199.027 362.462 199.031 362.461 199.034C362.461 199.037 362.461 199.04 362.461 199.044C362.46 199.047 362.46 199.05 362.46 199.054C362.459 199.057 362.459 199.06 362.459 199.063C362.459 199.067 362.458 199.07 362.458 199.073C362.458 199.077 362.458 199.08 362.457 199.083C362.457 199.087 362.457 199.09 362.457 199.093C362.456 199.096 362.456 199.1 362.456 199.103C362.455 199.106 362.455 199.11 362.455 199.113C362.455 199.116 362.454 199.12 362.454 199.123C362.454 199.126 362.454 199.13 362.453 199.133C362.453 199.136 362.453 199.14 362.453 199.143C362.452 199.146 362.452 199.15 362.452 199.153C362.451 199.156 362.451 199.16 362.451 199.163C362.451 199.166 362.45 199.17 362.45 199.173C362.45 199.177 362.45 199.18 362.449 199.183C362.449 199.187 362.449 199.19 362.449 199.193C362.448 199.197 362.448 199.2 362.448 199.204C362.447 199.207 362.447 199.21 362.447 199.214C362.447 199.217 362.446 199.221 362.446 199.224C362.446 199.227 362.446 199.231 362.445 199.234C362.445 199.238 362.445 199.241 362.444 199.244C362.444 199.248 362.444 199.251 362.444 199.255C362.443 199.258 362.443 199.261 362.443 199.265C362.443 199.268 362.442 199.272 362.442 199.275C362.442 199.279 362.441 199.282 362.441 199.285C362.441 199.289 362.441 199.292 362.44 199.296C362.44 199.299 362.44 199.303 362.44 199.306L362.938 199.346C362.94 199.318 362.939 199.332 362.941 199.305C362.942 199.301 362.942 199.298 362.942 199.294C362.942 199.291 362.943 199.288 362.943 199.284C362.943 199.281 362.943 199.277 362.944 199.274C362.944 199.271 362.944 199.267 362.945 199.264C362.947 199.237 362.946 199.25 362.948 199.223C362.95 199.196 362.949 199.21 362.951 199.183C362.951 199.18 362.952 199.176 362.952 199.173C362.952 199.17 362.952 199.166 362.953 199.163C362.953 199.16 362.953 199.156 362.953 199.153C362.954 199.15 362.954 199.146 362.954 199.143C362.956 199.117 362.955 199.13 362.957 199.103C362.959 199.077 362.958 199.09 362.96 199.064C362.961 199.061 362.961 199.057 362.961 199.054C362.962 199.051 362.962 199.048 362.962 199.044C362.962 199.041 362.963 199.038 362.963 199.035C362.963 199.032 362.963 199.028 362.964 199.025C362.966 198.999 362.965 199.012 362.967 198.986C362.969 198.961 362.968 198.974 362.97 198.948C362.97 198.945 362.97 198.942 362.971 198.939C362.971 198.935 362.971 198.932 362.971 198.929C362.972 198.926 362.972 198.923 362.972 198.92C362.972 198.916 362.973 198.913 362.973 198.91C362.975 198.885 362.974 198.897 362.976 198.872C362.978 198.847 362.977 198.86 362.979 198.835C362.979 198.832 362.979 198.829 362.98 198.826C362.98 198.823 362.98 198.82 362.98 198.816C362.981 198.813 362.981 198.81 362.981 198.807C362.981 198.804 362.982 198.801 362.982 198.798C362.982 198.795 362.982 198.792 362.983 198.789C362.983 198.786 362.983 198.783 362.983 198.78C362.984 198.767 362.984 198.773 362.985 198.761C362.987 198.737 362.986 198.749 362.988 198.725C362.989 198.713 362.988 198.719 362.989 198.707C362.989 198.704 362.99 198.701 362.99 198.698C362.99 198.695 362.99 198.692 362.991 198.689C362.991 198.686 362.991 198.683 362.991 198.68C362.991 198.677 362.992 198.674 362.992 198.671C362.993 198.659 362.992 198.665 362.993 198.653C362.995 198.629 362.994 198.641 362.996 198.618C362.997 198.606 362.997 198.612 362.998 198.6C362.998 198.597 362.998 198.594 362.998 198.591C362.999 198.588 362.999 198.585 362.999 198.583C362.999 198.58 362.999 198.577 363 198.574C363 198.571 363 198.568 363 198.565C363.001 198.554 363.001 198.559 363.002 198.548C363.004 198.525 363.003 198.536 363.005 198.513C363.005 198.502 363.005 198.508 363.006 198.496C363.006 198.493 363.006 198.49 363.007 198.488C363.007 198.485 363.007 198.482 363.007 198.479C363.008 198.476 363.008 198.473 363.008 198.471C363.008 198.468 363.008 198.465 363.009 198.462C363.01 198.451 363.009 198.457 363.01 198.445C363.012 198.423 363.011 198.434 363.013 198.412C363.014 198.401 363.013 198.406 363.014 198.395C363.014 198.392 363.014 198.39 363.015 198.387C363.015 198.384 363.015 198.381 363.015 198.379C363.016 198.376 363.016 198.373 363.016 198.37C363.016 198.368 363.016 198.365 363.017 198.362C363.018 198.351 363.017 198.357 363.018 198.346C363.02 198.324 363.019 198.335 363.021 198.313C363.021 198.303 363.021 198.308 363.022 198.297C363.022 198.295 363.022 198.292 363.022 198.289C363.023 198.287 363.023 198.284 363.023 198.281C363.023 198.279 363.024 198.276 363.024 198.273C363.024 198.271 363.024 198.268 363.024 198.265C363.025 198.255 363.025 198.26 363.026 198.249C363.027 198.228 363.027 198.239 363.028 198.218C363.029 198.207 363.029 198.213 363.029 198.202C363.03 198.2 363.03 198.197 363.03 198.194C363.03 198.192 363.03 198.189 363.031 198.187C363.031 198.184 363.031 198.181 363.031 198.179C363.032 198.176 363.032 198.174 363.032 198.171C363.033 198.161 363.032 198.166 363.033 198.156C363.035 198.135 363.034 198.145 363.036 198.125C363.036 198.115 363.036 198.12 363.037 198.11C363.037 198.107 363.037 198.105 363.037 198.102C363.038 198.1 363.038 198.097 363.038 198.095C363.038 198.092 363.038 198.09 363.039 198.087C363.039 198.085 363.039 198.082 363.039 198.08C363.04 198.07 363.04 198.075 363.04 198.065C363.042 198.045 363.041 198.055 363.043 198.035C363.044 198.026 363.043 198.03 363.044 198.021C363.044 198.018 363.044 198.016 363.045 198.013C363.045 198.011 363.045 198.008 363.045 198.006C363.048 197.968 363.047 197.986 363.05 197.948C363.053 197.911 363.051 197.929 363.054 197.892C363.056 197.874 363.055 197.883 363.056 197.865C363.057 197.855 363.057 197.86 363.058 197.851C363.058 197.849 363.058 197.846 363.058 197.844C363.058 197.842 363.058 197.839 363.059 197.837C363.061 197.801 363.06 197.819 363.063 197.783C363.066 197.748 363.064 197.766 363.067 197.731C363.068 197.714 363.068 197.722 363.069 197.705C363.07 197.697 363.07 197.701 363.07 197.693C363.07 197.691 363.071 197.688 363.071 197.686C363.071 197.684 363.071 197.682 363.071 197.68C363.074 197.647 363.073 197.663 363.075 197.63C363.078 197.598 363.077 197.614 363.079 197.582C363.08 197.566 363.08 197.574 363.081 197.558C363.082 197.55 363.081 197.554 363.082 197.546C363.082 197.544 363.082 197.542 363.082 197.54C363.083 197.538 363.083 197.536 363.083 197.534C363.085 197.504 363.084 197.519 363.087 197.488C363.089 197.459 363.088 197.473 363.09 197.444C363.091 197.429 363.091 197.437 363.092 197.422C363.092 197.415 363.092 197.418 363.093 197.411C363.093 197.409 363.093 197.408 363.093 197.406C363.093 197.404 363.093 197.402 363.094 197.4C363.096 197.372 363.095 197.386 363.097 197.358C363.099 197.331 363.098 197.345 363.1 197.318C363.1 197.316 363.1 197.314 363.101 197.313C363.101 197.311 363.101 197.309 363.101 197.308C363.101 197.306 363.101 197.304 363.101 197.303C363.102 197.301 363.102 197.299 363.102 197.298C363.102 197.296 363.102 197.294 363.102 197.293C363.102 197.291 363.102 197.29 363.103 197.288C363.103 197.286 363.103 197.285 363.103 197.283C363.103 197.281 363.103 197.28 363.103 197.278C363.105 197.253 363.104 197.265 363.106 197.24C363.108 197.215 363.107 197.228 363.109 197.203C363.11 197.191 363.11 197.197 363.111 197.185C363.111 197.184 363.111 197.182 363.111 197.181C363.111 197.179 363.111 197.178 363.111 197.176C363.112 197.175 363.112 197.173 363.112 197.172C363.112 197.17 363.112 197.169 363.112 197.168C363.113 197.163 363.113 197.163 363.113 197.159C363.113 197.157 363.113 197.156 363.113 197.155C363.113 197.153 363.113 197.152 363.114 197.15C363.114 197.139 363.114 197.145 363.115 197.133C363.117 197.111 363.116 197.122 363.118 197.1C363.118 197.09 363.118 197.095 363.119 197.084C363.119 197.083 363.119 197.082 363.119 197.08C363.119 197.079 363.119 197.078 363.119 197.076C363.12 197.075 363.12 197.074 363.12 197.072C363.12 197.071 363.12 197.07 363.12 197.069C363.123 197.029 363.122 197.047 363.125 197.009C363.128 196.972 363.126 196.99 363.129 196.955C363.131 196.938 363.13 196.946 363.131 196.929C363.132 196.921 363.132 196.925 363.132 196.917C363.132 196.916 363.132 196.915 363.132 196.914C363.133 196.913 363.133 196.912 363.133 196.911C363.133 196.91 363.133 196.909 363.133 196.908C363.133 196.907 363.133 196.907 363.133 196.906C363.136 196.876 363.134 196.889 363.137 196.862C363.139 196.835 363.138 196.848 363.14 196.823C363.141 196.811 363.14 196.817 363.141 196.805C363.142 196.795 363.141 196.812 363.142 196.801C363.142 196.797 363.142 196.801 363.142 196.797C363.142 196.794 363.142 196.796 363.142 196.793C363.143 196.786 363.142 196.796 363.142 196.789C363.145 196.755 363.144 196.765 363.147 196.737C363.148 196.714 363.148 196.722 363.149 196.706C363.151 196.686 363.148 196.721 363.149 196.702C363.15 196.696 363.149 196.704 363.15 196.699C363.15 196.691 363.149 196.704 363.15 196.697C363.15 196.696 363.15 196.698 363.15 196.697C363.15 196.697 363.15 196.697 363.15 196.697C363.15 196.696 363.15 196.696 363.15 196.696C363.15 196.696 363.15 196.696 363.15 196.696C363.15 196.696 363.15 196.696 363.15 196.696C363.15 196.696 363.15 196.696 363.15 196.696C363.15 196.696 363.15 196.696 362.901 196.676ZM362.44 199.306C362.298 201.074 362.121 203.442 361.909 206.41L362.408 206.446C362.62 203.478 362.797 201.112 362.938 199.346L362.44 199.306ZM361.909 206.41C361.697 209.307 361.45 212.628 361.167 216.373L361.666 216.411C361.949 212.665 362.196 209.344 362.408 206.446L361.909 206.41ZM361.167 216.373C360.885 220.119 360.602 224.006 360.319 228.034L360.818 228.069C361.101 224.042 361.383 220.156 361.666 216.411L361.167 216.373ZM360.319 228.034C360.037 231.992 359.754 235.949 359.471 239.906L359.97 239.942C360.253 235.984 360.535 232.027 360.818 228.07L360.319 228.034ZM359.471 239.906C359.189 243.792 358.906 247.395 358.624 250.715L359.122 250.757C359.405 247.435 359.687 243.83 359.97 239.942L359.471 239.906ZM358.624 250.714C358.341 253.965 358.094 256.791 357.882 259.194L358.38 259.238C358.592 256.835 358.839 254.008 359.122 250.758L358.624 250.714ZM357.881 259.201C357.74 261.533 357.634 263.084 357.564 263.857L358.062 263.903C358.133 263.121 358.239 261.563 358.38 259.231L357.881 259.201ZM357.566 263.839C357.497 264.256 357.419 264.597 357.336 264.865C357.251 265.137 357.164 265.318 357.083 265.426L357.483 265.726C357.613 265.552 357.721 265.309 357.813 265.015C357.906 264.717 357.988 264.352 358.059 263.921L357.566 263.839ZM357.083 265.426C357.03 265.496 356.898 265.584 356.616 265.651C356.342 265.715 355.966 265.75 355.481 265.75V266.25C355.985 266.25 356.404 266.214 356.73 266.137C357.049 266.062 357.324 265.938 357.483 265.726L357.083 265.426ZM355.481 265.75H351.665V266.25H355.481V265.75ZM351.665 265.75C350.193 265.75 348.792 265.645 347.464 265.435L347.386 265.929C348.742 266.143 350.169 266.25 351.665 266.25V265.75ZM347.479 265.438C346.228 265.16 345.121 264.744 344.157 264.193L343.909 264.627C344.923 265.206 346.077 265.639 347.37 265.926L347.479 265.438ZM344.175 264.204C343.288 263.59 342.571 262.806 342.024 261.848L341.59 262.096C342.173 263.117 342.94 263.958 343.89 264.616L344.175 264.204ZM342.033 261.866C341.559 260.85 341.315 259.546 341.315 257.944H340.815C340.815 259.593 341.065 260.974 341.58 262.078L342.033 261.866ZM340.839 257.837C339.588 260.478 337.676 262.634 335.099 264.306L335.371 264.726C338.022 263.006 339.998 260.78 341.291 258.051L340.839 257.837ZM335.096 264.308C332.603 265.97 329.439 266.81 325.589 266.81V267.31C329.511 267.31 332.778 266.454 335.373 264.724L335.096 264.308ZM334.811 220.488C332.971 220.488 331.353 220.894 329.966 221.715C328.58 222.536 327.437 223.764 326.536 225.387L326.973 225.629C327.839 224.072 328.923 222.915 330.221 222.146C331.52 221.377 333.047 220.988 334.811 220.988V220.488ZM326.535 225.388C324.812 228.548 323.961 232.799 323.961 238.122H324.461C324.461 232.845 325.306 228.687 326.974 225.628L326.535 225.388ZM323.961 238.122C323.961 239.969 324.067 241.781 324.281 243.558L324.777 243.498C324.566 241.742 324.461 239.95 324.461 238.122H323.961ZM324.282 243.567C324.567 245.353 325.032 246.964 325.679 248.401L326.135 248.195C325.509 246.805 325.055 245.237 324.776 243.489L324.282 243.567ZM325.679 248.401C326.329 249.845 327.199 251.009 328.295 251.885L328.607 251.495C327.582 250.675 326.757 249.578 326.135 248.195L325.679 248.401ZM328.301 251.89C329.483 252.777 330.952 253.212 332.691 253.212V252.712C331.038 252.712 329.68 252.299 328.601 251.49L328.301 251.89ZM332.691 253.212C335.828 253.212 338.442 251.673 340.528 248.652L340.117 248.368C338.104 251.283 335.631 252.712 332.691 252.712V253.212ZM340.528 248.652C342.621 245.621 343.647 240.895 343.647 234.518H343.147C343.147 240.861 342.123 245.463 340.117 248.368L340.528 248.652ZM343.647 234.518C343.647 232.741 343.54 231.035 343.327 229.398L342.831 229.462C343.041 231.076 343.147 232.761 343.147 234.518H343.647ZM343.327 229.399C343.112 227.68 342.681 226.168 342.03 224.866L341.583 225.09C342.204 226.332 342.621 227.788 342.831 229.461L343.327 229.399ZM342.03 224.866C341.376 223.558 340.465 222.5 339.298 221.698L339.015 222.11C340.11 222.862 340.965 223.854 341.583 225.09L342.03 224.866ZM339.298 221.698C338.116 220.885 336.613 220.488 334.811 220.488V220.988C336.541 220.988 337.937 221.369 339.015 222.11L339.298 221.698ZM382.235 265.046L382.133 265.275L382.14 265.277L382.235 265.046ZM374.603 259.322L374.407 259.477L374.407 259.477L374.603 259.322ZM370.575 250.948L370.332 251.006L370.332 251.007L370.575 250.948ZM370.893 228.158L370.651 228.095L370.65 228.098L370.893 228.158ZM376.193 217.24L375.996 217.087L375.996 217.087L376.193 217.24ZM385.945 209.608L386.052 209.834L386.054 209.833L385.945 209.608ZM420.289 213.212L420.1 213.376L420.103 213.379L420.289 213.212ZM425.589 238.758L425.341 238.725L425.34 238.731L425.589 238.758ZM423.787 246.602L423.551 246.519L423.549 246.525L423.787 246.602ZM420.183 254.234L419.971 254.101L419.969 254.105L420.183 254.234ZM414.459 260.806L414.617 260.999L414.617 260.999L414.459 260.806ZM405.979 265.364L405.898 265.127L405.897 265.128L405.979 265.364ZM392.941 222.858L393.104 223.047L393.105 223.047L392.941 222.858ZM389.337 227.84L389.107 227.742L389.105 227.746L389.337 227.84ZM387.747 233.988L387.499 233.956L387.498 233.963L387.747 233.988ZM389.655 249.676L389.862 249.536L389.862 249.536L389.655 249.676ZM402.057 250.63L401.884 250.449L401.88 250.453L402.057 250.63ZM405.767 245.012L405.536 244.915L405.534 244.922L405.767 245.012ZM407.569 238.122L407.322 238.086L407.321 238.093L407.569 238.122ZM406.085 223.812L405.872 223.944L405.878 223.952L406.085 223.812ZM394.425 266.81C389.57 266.81 385.542 266.141 382.33 264.815L382.14 265.277C385.43 266.636 389.528 267.31 394.425 267.31V266.81ZM382.336 264.818C379.188 263.418 376.678 261.534 374.799 259.167L374.407 259.477C376.343 261.916 378.922 263.847 382.133 265.274L382.336 264.818ZM374.799 259.167C372.915 256.794 371.587 254.036 370.818 250.889L370.332 251.007C371.117 254.22 372.475 257.045 374.407 259.477L374.799 259.167ZM370.818 250.89C370.046 247.66 369.659 244.217 369.659 240.56H369.159C369.159 244.252 369.55 247.735 370.332 251.006L370.818 250.89ZM369.659 240.56C369.659 236.34 370.151 232.226 371.136 228.218L370.65 228.098C369.656 232.146 369.159 236.3 369.159 240.56H369.659ZM371.135 228.221C372.187 224.153 373.939 220.545 376.39 217.393L375.996 217.087C373.5 220.295 371.719 223.965 370.651 228.095L371.135 228.221ZM376.39 217.393C378.837 214.248 382.056 211.727 386.052 209.834L385.838 209.382C381.778 211.305 378.495 213.872 375.996 217.087L376.39 217.393ZM386.054 209.833C390.109 207.875 395.157 206.89 401.209 206.89V206.39C395.106 206.39 389.978 207.383 385.836 209.383L386.054 209.833ZM401.209 206.89C410.079 206.89 416.352 209.073 420.1 213.376L420.477 213.048C416.593 208.588 410.147 206.39 401.209 206.39V206.89ZM420.103 213.379C423.936 217.63 425.869 223.64 425.869 231.444H426.369C426.369 223.56 424.415 217.415 420.475 213.045L420.103 213.379ZM425.869 231.444C425.869 233.622 425.693 236.048 425.341 238.725L425.837 238.791C426.191 236.097 426.369 233.648 426.369 231.444H425.869ZM425.34 238.731C425.06 241.326 424.464 243.922 423.551 246.519L424.023 246.685C424.948 244.053 425.553 241.42 425.838 238.785L425.34 238.731ZM423.549 246.525C422.708 249.119 421.516 251.644 419.971 254.101L420.395 254.367C421.96 251.877 423.17 249.315 424.025 246.679L423.549 246.525ZM419.969 254.105C418.5 256.553 416.611 258.722 414.301 260.613L414.617 260.999C416.971 259.074 418.898 256.862 420.397 254.363L419.969 254.105ZM414.301 260.613C411.995 262.499 409.196 264.005 405.898 265.127L406.06 265.601C409.405 264.462 412.259 262.929 414.617 260.999L414.301 260.613ZM405.897 265.128C402.679 266.247 398.857 266.81 394.425 266.81V267.31C398.897 267.31 402.778 266.742 406.061 265.6L405.897 265.128ZM399.407 220.488C396.677 220.488 394.458 221.207 392.777 222.669L393.105 223.047C394.674 221.682 396.767 220.988 399.407 220.988V220.488ZM392.778 222.669C391.193 224.037 389.969 225.73 389.107 227.742L389.567 227.938C390.401 225.993 391.58 224.364 393.104 223.047L392.778 222.669ZM389.105 227.746C388.319 229.675 387.784 231.745 387.499 233.956L387.995 234.02C388.275 231.849 388.8 229.821 389.568 227.934L389.105 227.746ZM387.498 233.963C387.286 236.088 387.179 237.899 387.179 239.394H387.679C387.679 237.921 387.784 236.128 387.996 234.013L387.498 233.963ZM387.179 239.394C387.179 244.075 387.922 247.563 389.448 249.816L389.862 249.536C388.42 247.408 387.679 244.041 387.679 239.394H387.179ZM389.448 249.816C390.981 252.079 393.18 253.212 396.015 253.212V252.712C393.338 252.712 391.297 251.654 389.862 249.536L389.448 249.816ZM396.015 253.212C398.546 253.212 400.626 252.414 402.234 250.807L401.88 250.453C400.378 251.955 398.431 252.712 396.015 252.712V253.212ZM402.23 250.811C403.883 249.23 405.139 247.326 406 245.102L405.534 244.922C404.698 247.08 403.482 248.921 401.884 250.449L402.23 250.811ZM405.998 245.109C406.925 242.896 407.532 240.577 407.817 238.151L407.321 238.093C407.041 240.473 406.446 242.747 405.536 244.915L405.998 245.109ZM407.816 238.158C408.171 235.749 408.349 233.722 408.349 232.08H407.849C407.849 233.689 407.674 235.69 407.322 238.086L407.816 238.158ZM408.349 232.08C408.349 228.519 407.673 225.707 406.292 223.672L405.878 223.952C407.182 225.874 407.849 228.574 407.849 232.08H408.349ZM406.297 223.68C404.965 221.534 402.642 220.488 399.407 220.488V220.988C402.532 220.988 404.66 221.991 405.873 223.944L406.297 223.68Z" fill="black" fill-opacity="0.35"/>
<path d="M159.814 212.747C160.666 211.445 162.178 209.106 161.606 207.058C161.034 205.01 167.057 206.07 166.656 207.9C165.297 211.195 164.915 214.691 163.16 214.937C163.03 214.917 162.888 214.892 162.74 214.862L160.765 215.475L160.641 214.188C159.93 213.824 159.481 213.342 159.814 212.747Z" fill="white"/>
<path d="M160.641 214.188C159.93 213.824 159.481 213.342 159.814 212.747C160.666 211.445 162.178 209.106 161.606 207.058C161.034 205.01 167.057 206.07 166.656 207.9C165.297 211.195 164.915 214.691 163.16 214.937C163.03 214.917 162.888 214.892 162.74 214.862M160.641 214.188L160.765 215.475L162.74 214.862M160.641 214.188C161.257 214.503 162.07 214.729 162.74 214.862" stroke="#7C7C7C" stroke-width="0.25"/>
<path d="M153.969 213.163C154.085 211.611 153.945 208.128 152.454 206.612C150.964 205.096 157.018 203.579 157.552 205.375C157.955 208.916 159.374 212.397 157.957 213.462C157.833 213.507 157.697 213.554 157.552 213.599L156.556 214.633L155.389 214.024C154.591 214.049 153.965 213.845 153.969 213.163Z" fill="white"/>
<path d="M155.389 214.024C154.591 214.049 153.965 213.845 153.969 213.163C154.085 211.611 153.945 208.128 152.454 206.612C150.964 205.096 157.018 203.579 157.552 205.375C157.955 208.916 159.374 212.397 157.957 213.462C157.833 213.507 157.697 213.554 157.552 213.599M155.389 214.024L156.556 214.633L157.552 213.599M155.389 214.024C156.081 214.002 156.901 213.806 157.552 213.599" stroke="#7C7C7C" stroke-width="0.25"/>
<path d="M154.212 212.883C152.901 211.371 154.356 208.453 151.881 206.021C151.208 205.36 150.418 206.13 149.576 206.619C147.904 207.588 148.444 209.564 149.067 210.674C151.667 214.379 150.434 214.172 152.116 214.7C152.225 214.698 152.342 214.693 152.463 214.684L154.07 215.475L154.07 214.287C154.557 214.009 154.76 213.565 154.212 212.883Z" fill="white"/>
<path d="M154.07 214.287C154.557 214.009 154.76 213.565 154.212 212.883C152.901 211.371 154.356 208.453 151.881 206.021C151.208 205.36 150.418 206.13 149.576 206.619C147.904 207.588 148.444 209.564 149.067 210.674C151.667 214.379 150.434 214.172 152.116 214.7C152.225 214.698 152.342 214.693 152.463 214.684M154.07 214.287L154.07 215.475L152.463 214.684M154.07 214.287C153.647 214.528 153.01 214.644 152.463 214.684" stroke="#7C7C7C" stroke-width="0.25"/>
<path d="M232.214 223.508C233.381 223.654 234.293 222.209 235.676 222.208C237 222.208 237.889 223.892 236.518 224.734C234.522 225.575 232.76 226.247 231.967 225.48C231.934 225.415 231.9 225.345 231.866 225.27L230.626 224.734L231.558 224.167C231.544 223.768 231.701 223.467 232.214 223.508Z" fill="white"/>
<path d="M231.558 224.167C231.544 223.768 231.701 223.467 232.214 223.508C233.381 223.654 234.293 222.209 235.676 222.208C237 222.208 237.889 223.892 236.518 224.734C234.522 225.575 232.76 226.247 231.967 225.48C231.934 225.415 231.9 225.345 231.866 225.27M231.558 224.167L230.626 224.734L231.866 225.27M231.558 224.167C231.571 224.513 231.714 224.934 231.866 225.27" stroke="#7C7C7C" stroke-width="0.25"/>
<path d="M230.645 219.505C232.2 219.568 233.942 219.42 235.676 218.842C238.201 218 238.605 221.831 236.836 222.248C233.317 222.593 231.652 223.461 230.525 222.436C230.474 222.345 230.422 222.246 230.37 222.141L229.293 221.424L229.849 220.559C229.788 219.974 229.964 219.512 230.645 219.505Z" fill="white"/>
<path d="M229.849 220.559C229.788 219.974 229.964 219.512 230.645 219.505C232.2 219.568 233.942 219.42 235.676 218.842C238.201 218 238.605 221.831 236.836 222.248C233.317 222.593 231.652 223.461 230.525 222.436C230.474 222.345 230.422 222.246 230.37 222.141M229.849 220.559L229.293 221.424L230.37 222.141M229.849 220.559C229.902 221.066 230.134 221.666 230.37 222.141" stroke="#7C7C7C" stroke-width="0.25"/>
<path d="M230.469 219.076C232.141 217.977 234.84 219.805 237.579 217.674C238.324 217.095 237.664 216.211 237.292 215.311C236.553 213.525 234.523 213.798 233.34 214.269C229.323 216.355 229.692 215.16 228.945 216.757C228.933 216.865 228.922 216.982 228.915 217.103L227.918 218.591L229.096 218.748C229.307 219.269 229.72 219.528 230.469 219.076Z" fill="white"/>
<path d="M229.096 218.748C229.307 219.269 229.72 219.528 230.469 219.076C232.141 217.977 234.84 219.805 237.579 217.674C238.324 217.095 237.664 216.211 237.292 215.311C236.553 213.525 234.523 213.798 233.34 214.269C229.323 216.355 229.692 215.16 228.945 216.757C228.933 216.865 228.922 216.982 228.915 217.103M229.096 218.748L227.918 218.591L228.915 217.103M229.096 218.748C228.913 218.297 228.882 217.651 228.915 217.103" stroke="#7C7C7C" stroke-width="0.25"/>
<path d="M224.222 176.805C220.041 177.897 215.426 168.48 198.608 173.423C186.529 176.973 186.595 187.14 180.965 197.799C175.336 208.459 173.063 203.944 169.061 212.285C166.118 220.48 174.029 215.381 175.465 218.204C177.26 221.732 209.173 218.423 210.64 214.208C212.107 209.993 227.187 218.052 227.709 213.485C232.1 215.807 236.901 210.902 236.901 210.902C238.297 211.783 242.481 208.08 244.418 205.961C243.732 205.52 242.752 204.464 244.325 203.771C245.899 203.078 244.753 198.111 243.984 195.715C243.67 195.075 242.968 193.031 242.667 189.972C242.29 186.149 232.037 185.642 232.73 183.419C233.423 181.196 229.954 175.309 224.222 176.805Z" fill="white"/>
<path d="M231.787 190.052C231.248 190.829 228.612 190.501 227.361 190.24C227.018 191.693 227.113 194.504 230.243 194.12C234.156 193.641 232.461 189.082 231.787 190.052Z" fill="#353535" fill-opacity="0.32" stroke="#4F4F4F" stroke-width="0.25"/>
<path d="M242.661 190.358C242.486 191.11 241.521 190.716 241.061 190.425C240.975 191.852 241.084 194.631 242.209 194.335C243.616 193.965 242.88 189.417 242.661 190.358Z" fill="#353535" fill-opacity="0.32" stroke="#4F4F4F" stroke-width="0.25"/>
<path d="M239.291 200.729C241.75 200.563 247.459 201.166 243.672 204.299C239.291 201.166 234.83 204.233 228.458 203.823C232.922 203.392 236.586 200.911 239.291 200.729Z" fill="#353535" fill-opacity="0.32"/>
<path d="M208.745 202.025C217.42 205.49 221.283 203.639 226.597 203.874C227.232 203.902 227.852 203.881 228.458 203.823M228.458 203.823C232.922 203.392 236.586 200.911 239.291 200.729C241.75 200.563 247.459 201.166 243.672 204.299C239.291 201.166 234.83 204.233 228.458 203.823Z" stroke="#4F4F4F" stroke-width="0.25"/>
<path d="M205.314 178.663C208.402 178.721 208.813 183.706 208.873 185.119C208.933 186.532 208.02 186.885 205.097 187.009C201.906 187.144 200.763 186.484 201.132 182.772C201.265 181.43 202.227 178.605 205.314 178.663Z" stroke="#4F4F4F" stroke-width="0.25"/>
<path d="M204.502 179.956C206.699 179.471 204.524 181.525 205.161 183.692C205.663 185.395 205.93 186.647 204.424 186.546C202.761 186.434 204.195 185.092 203.876 183.746C203.563 182.557 202.305 180.441 204.502 179.956Z" fill="#353535" fill-opacity="0.32"/>
<path d="M196.828 189.611C199.357 187.962 205.901 185.621 211.843 189.446M205.161 183.692C204.524 181.525 206.699 179.471 204.502 179.956C202.305 180.441 203.563 182.557 203.876 183.746C204.195 185.092 202.761 186.434 204.424 186.546C205.93 186.647 205.663 185.395 205.161 183.692Z" stroke="#4F4F4F" stroke-width="0.25"/>
<path d="M222.965 176.915C227.464 175.887 228.16 176.291 230.593 178.266C234.514 181.448 231.562 183.246 233.109 184.018" stroke="#BDBDBD" stroke-width="0.25"/>
<path d="M209.352 178.406C208.247 177.217 203.671 175.68 200.261 178.792" stroke="#4F4F4F" stroke-width="0.2"/>
<path d="M168.163 215.475C173.39 201.166 174.232 209.583 180.124 199.483C186.015 189.382 186.556 176.905 198.671 173.265C215.54 168.195 220.131 177.673 224.323 176.552C230.072 175.014 233.527 180.936 232.825 183.183C232.123 185.429 242.394 185.89 242.758 189.746C243.049 192.83 243.745 194.889 244.057 195.533C244.819 197.947 245.949 202.952 244.37 203.659C242.791 204.367 243.769 205.427 244.455 205.868C242.507 208.016 238.302 211.772 236.905 210.89C236.905 210.89 232.078 215.862 227.686 213.541C227.147 218.151 206.097 209.583 196.993 216.317" stroke="#8C8C8C" stroke-width="0.25"/>
</svg>
